<svg xmlns="http://www.w3.org/2000/svg" xmlns:xlink="http://www.w3.org/1999/xlink" data-v-1e121de1="" version="1.0" width="100%" height="100%" viewBox="0 0 160 160" preserveAspectRatio="xMidYMid meet" color-interpolation-filters="sRGB" class="el-tooltip" style="margin: auto;width: 160px;height: 160px;"><rect data-v-1e121de1="" x="0" y="0" width="100%" height="100%" fill="#00072F" fill-opacity="1" class="background __web-inspector-hide-shortcut__"/> <rect data-v-1e121de1="" x="0" y="0" width="100%" height="100%" fill="url(#watermark)" fill-opacity="1" class="watermarklayer"/> <g data-v-1e121de1="" fill="#333" class="icon-text-wrapper icon-svg-group iconsvg" transform="translate(139.98565483093262,96.00781631469727)" style="&#10;    transform: translate(8px, 10px) scale(2.4);&#10;"><g class="iconsvg-imagesvg" transform="translate(0,0)"><rect fill="#333" fill-opacity="0" stroke-width="2" x="0" y="0" width="60" height="57.984366766204104" class="image-rect"/> <svg filter="url(#colors178813498)" x="0" y="0" width="60" height="57.984366766204104" filtersec="colorsf421703241" class="image-svg-svg primary"><svg xmlns="http://www.w3.org/2000/svg" viewBox="0 0 227.72 220.07"><path d="M108.83 25.41c-36.7-1.36-75.3 32.08-82 72.77a89.21 89.21 0 0 0 4.79 47.32c1.39 3.64 2.65 4.82 5.89 1.56q30.85-31.06 61.89-62c9-9 18-18 27.07-26.94 4.86-4.76 8.2-4.74 13.2-.16 2.62 2.41 5.11 5 7.58 7.54 4.93 5.15 5 8.84-.17 14q-23.7 23.83-47.53 47.54c-14.77 14.76-29.46 29.6-44.38 44.21-3.37 3.29-3.43 5.24.19 8.43 10.49 9.23 10.27 9.29 19.76-.39q16.18-16.53 32.69-32.76c5.27-5.22 9.81-5.42 15.07-.24q24.87 24.47 49.41 49.27c5 5 4.77 8.32-.11 13.63-2.53 2.75-5.19 5.39-7.93 7.92-4.38 4-8.66 3.91-13-.31q-15.46-15.13-30.87-30.32c-4.53-4.43-5.52-4.45-10 0-9.76 9.69-19.56 19.34-29.15 29.19-3.63 3.74-7.44 4.33-12 2.3-36.91-16.48-59.78-44.47-67.18-84.15C-5.31 94.39 6.3 60.1 34.56 32.16 59.75 7.28 90.79-3.11 126.18.81c37.44 4.15 65.78 22.9 85.35 54.79 8 13.12 12.39 27.57 14.89 42.91 3.08 18.94-.13 36.81-6 54.46-3.74 11.33-10.09 21.46-17.22 31-3.54 4.73-8.36 5.38-12.81 1.38-7.94-7.15-15.48-14.74-23.14-22.19-10.47-10.17-20.88-20.39-31.34-30.57-4.79-4.67-5-8.69-.46-13.7 2.73-3 5.63-5.88 8.62-8.64 4-3.65 8.9-3.18 13.53 1.39 10.63 10.5 21.15 21.11 31.72 31.67 5.72 5.71 6.15 5.7 8.54-2.3 9.35-31.29 3.93-59.76-17.26-84.73-17.31-20.59-39.8-30.81-71.77-30.87z" fill="#f45120"/></svg></svg> <defs><filter id="colors178813498"><feColorMatrix type="matrix" values="0 0 0 0 0.84375  0 0 0 0 0.7109375  0 0 0 0 0.53125  0 0 0 1 0" class="icon-fecolormatrix"/></filter> <filter id="colorsf421703241"><feColorMatrix type="matrix" values="0 0 0 0 0.99609375  0 0 0 0 0.99609375  0 0 0 0 0.99609375  0 0 0 1 0" class="icon-fecolormatrix"/></filter> <filter id="colorsb9229373792"><feColorMatrix type="matrix" values="0 0 0 0 0  0 0 0 0 0  0 0 0 0 0  0 0 0 1 0" class="icon-fecolormatrix"/></filter></defs></g> <g transform="translate(67.02869033813477,28.992183685302734)"><g fill-rule="" class="tp-name iconsvg-namesvg"><g><path d="" transform="translate(0, 0)"/></g> <!----> <!----> <!----> <!----> <!----> <!----> <!----></g> <!----></g></g></svg>