<svg xmlns="http://www.w3.org/2000/svg" xmlns:xlink="http://www.w3.org/1999/xlink" data-v-1e121de1="" version="1.0" width="100%" height="100%" viewBox="0 0 340.000000 250.000000" preserveAspectRatio="xMidYMid meet" color-interpolation-filters="sRGB" class="el-tooltip" style="margin: auto;">  <g data-v-1e121de1="" fill="#d8b688" class="icon-text-wrapper icon-svg-group iconsvg" transform="translate(79.37895202636719,103.73906517028809)"><g class="iconsvg-imagesvg" transform="translate(0,0)"><rect fill="#d8b688" fill-opacity="0" stroke-width="2" x="0" y="0" width="44" height="42.52186896188301" class="image-rect"/> <svg filter="url(#colors6121895009)" x="0" y="0" width="44" height="42.52186896188301" filtersec="colorsf1011664865" class="image-svg-svg primary"><svg xmlns="http://www.w3.org/2000/svg" viewBox="0 0 227.72 220.07"><path d="M108.83 25.41c-36.7-1.36-75.3 32.08-82 72.77a89.21 89.21 0 0 0 4.79 47.32c1.39 3.64 2.65 4.82 5.89 1.56q30.85-31.06 61.89-62c9-9 18-18 27.07-26.94 4.86-4.76 8.2-4.74 13.2-.16 2.62 2.41 5.11 5 7.58 7.54 4.93 5.15 5 8.84-.17 14q-23.7 23.83-47.53 47.54c-14.77 14.76-29.46 29.6-44.38 44.21-3.37 3.29-3.43 5.24.19 8.43 10.49 9.23 10.27 9.29 19.76-.39q16.18-16.53 32.69-32.76c5.27-5.22 9.81-5.42 15.07-.24q24.87 24.47 49.41 49.27c5 5 4.77 8.32-.11 13.63-2.53 2.75-5.19 5.39-7.93 7.92-4.38 4-8.66 3.91-13-.31q-15.46-15.13-30.87-30.32c-4.53-4.43-5.52-4.45-10 0-9.76 9.69-19.56 19.34-29.15 29.19-3.63 3.74-7.44 4.33-12 2.3-36.91-16.48-59.78-44.47-67.18-84.15C-5.31 94.39 6.3 60.1 34.56 32.16 59.75 7.28 90.79-3.11 126.18.81c37.44 4.15 65.78 22.9 85.35 54.79 8 13.12 12.39 27.57 14.89 42.91 3.08 18.94-.13 36.81-6 54.46-3.74 11.33-10.09 21.46-17.22 31-3.54 4.73-8.36 5.38-12.81 1.38-7.94-7.15-15.48-14.74-23.14-22.19-10.47-10.17-20.88-20.39-31.34-30.57-4.79-4.67-5-8.69-.46-13.7 2.73-3 5.63-5.88 8.62-8.64 4-3.65 8.9-3.18 13.53 1.39 10.63 10.5 21.15 21.11 31.72 31.67 5.72 5.71 6.15 5.7 8.54-2.3 9.35-31.29 3.93-59.76-17.26-84.73-17.31-20.59-39.8-30.81-71.77-30.87z" fill="#f45120"/></svg></svg> <defs class=""><filter id="colors6121895009"><feColorMatrix type="matrix" values="0 0 0 0 0.84375  0 0 0 0 0.7109375  0 0 0 0 0.53125  0 0 0 1 0" class="icon-fecolormatrix"/></filter> <filter id="colorsf1011664865"><feColorMatrix type="matrix" values="0 0 0 0 0.99609375  0 0 0 0 0.99609375  0 0 0 0 0.99609375  0 0 0 1 0" class="icon-fecolormatrix"/></filter> <filter id="colorsb2011124743"><feColorMatrix type="matrix" values="0 0 0 0 0  0 0 0 0 0  0 0 0 0 0  0 0 0 1 0" class="icon-fecolormatrix"/></filter></defs></g> <g transform="translate(51.02104187011719,4.585935592651367)"><g fill-rule="" class="tp-name iconsvg-namesvg"><g><path d="M11.85-14.80L20.05-14.80Q20.05-17.35 19.03-18.25Q18-19.15 14.95-19.15L14.95-19.15L3.65-19.15L3.65-24.35L14.95-24.35Q18-24.35 19.15-24.23Q20.30-24.10 21.50-23.75L21.50-23.75Q27.05-21.65 26.75-13.70L26.75-13.70L26.75 0L12.65 0Q8.85 0 7.40-0.23Q5.95-0.45 4.85-1.15L4.85-1.15Q1.90-3.15 1.90-7.20L1.90-7.20Q1.90-9.65 3.08-11.58Q4.25-13.50 6.20-14.20L6.20-14.20Q7.90-14.80 11.85-14.80L11.85-14.80ZM20.05-5.20L20.05-9.60L12.35-9.60L11.20-9.60Q10.05-9.60 9.38-9Q8.70-8.40 8.70-7.35L8.70-7.35Q8.70-6.20 9.53-5.70Q10.35-5.20 12.35-5.20L12.35-5.20L20.05-5.20ZM29.90 0L39.05-12.05L30.25-24.35L37.75-24.35L42.90-17.15L47.85-24.35L55.75-24.35L46.65-12.05L55.75 0L47.85 0L42.90-6.95L37.75 0L29.90 0ZM65.05-14.80L79.15-14.80L79.15-9.60L65.05-9.60Q65.25-7.20 66.60-6.20Q67.95-5.20 71-5.20L71-5.20L79.15-5.20L79.15 0L70.25 0Q67.35 0 65.53-0.53Q63.70-1.05 62.10-2.25L62.10-2.25Q57.65-5.70 57.65-12.50L57.65-12.50Q57.65-16.90 60-20.20L60-20.20Q61.60-22.45 63.85-23.40Q66.10-24.35 69.75-24.35L69.75-24.35L79.15-24.35L79.15-19.15L70.25-19.15Q67.50-19.15 66.40-18.23Q65.30-17.30 65.05-14.80L65.05-14.80ZM81.35-15.90L93-15.90L93-9.90L81.35-9.90L81.35-15.90ZM105.85-5.20L112.15-5.20L112.15-24.35L118.85-24.35L118.85 0L105.65 0Q102.80 0 101.25-0.43Q99.70-0.85 98.50-1.95L98.50-1.95Q95.95-4.25 95.95-9.40L95.95-9.40L95.95-24.35L102.60-24.35L102.60-8.70Q102.60-7.05 103.47-6.13Q104.35-5.20 105.85-5.20L105.85-5.20ZM125.40 0L125.40-24.35L132.10-24.35L132.10 0L125.40 0ZM132.10-26.85L125.40-26.85L125.40-33.35L132.10-33.35L132.10-26.85Z" transform="translate(-1.9000000000000001, 33.35)"/></g>       </g> </g></g></svg>