<svg xmlns="http://www.w3.org/2000/svg" xmlns:xlink="http://www.w3.org/1999/xlink" data-v-1e121de1="" version="1.0" width="100%" height="100%" viewBox="0 0 340.000000 250.000000" preserveAspectRatio="xMidYMid meet" color-interpolation-filters="sRGB" class="el-tooltip" style="margin: auto;">  <g data-v-1e121de1="" fill="#00539f" class="icon-text-wrapper icon-svg-group iconsvg" transform="translate(102.85108947753906,100.34039306640625)"><g class="iconsvg-imagesvg" transform="translate(0,0)"><rect fill="#00539f" fill-opacity="0" stroke-width="2" x="0" y="0" width="50" height="48.32030563850342" class="image-rect"/> <svg filter="url(#colors3454243639)" x="0" y="0" width="50" height="48.32030563850342" filtersec="colorsf338545406" class="image-svg-svg primary"><svg xmlns="http://www.w3.org/2000/svg" viewBox="0 0 227.72 220.07"><path d="M108.83 25.41c-36.7-1.36-75.3 32.08-82 72.77a89.21 89.21 0 0 0 4.79 47.32c1.39 3.64 2.65 4.82 5.89 1.56q30.85-31.06 61.89-62c9-9 18-18 27.07-26.94 4.86-4.76 8.2-4.74 13.2-.16 2.62 2.41 5.11 5 7.58 7.54 4.93 5.15 5 8.84-.17 14q-23.7 23.83-47.53 47.54c-14.77 14.76-29.46 29.6-44.38 44.21-3.37 3.29-3.43 5.24.19 8.43 10.49 9.23 10.27 9.29 19.76-.39q16.18-16.53 32.69-32.76c5.27-5.22 9.81-5.42 15.07-.24q24.87 24.47 49.41 49.27c5 5 4.77 8.32-.11 13.63-2.53 2.75-5.19 5.39-7.93 7.92-4.38 4-8.66 3.91-13-.31q-15.46-15.13-30.87-30.32c-4.53-4.43-5.52-4.45-10 0-9.76 9.69-19.56 19.34-29.15 29.19-3.63 3.74-7.44 4.33-12 2.3-36.91-16.48-59.78-44.47-67.18-84.15C-5.31 94.39 6.3 60.1 34.56 32.16 59.75 7.28 90.79-3.11 126.18.81c37.44 4.15 65.78 22.9 85.35 54.79 8 13.12 12.39 27.57 14.89 42.91 3.08 18.94-.13 36.81-6 54.46-3.74 11.33-10.09 21.46-17.22 31-3.54 4.73-8.36 5.38-12.81 1.38-7.94-7.15-15.48-14.74-23.14-22.19-10.47-10.17-20.88-20.39-31.34-30.57-4.79-4.67-5-8.69-.46-13.7 2.73-3 5.63-5.88 8.62-8.64 4-3.65 8.9-3.18 13.53 1.39 10.63 10.5 21.15 21.11 31.72 31.67 5.72 5.71 6.15 5.7 8.54-2.3 9.35-31.29 3.93-59.76-17.26-84.73-17.31-20.59-39.8-30.81-71.77-30.87z" fill="#f45120"/></svg></svg> <defs><filter id="colors3454243639"><feColorMatrix type="matrix" values="0 0 0 0 0  0 0 0 0 0.32421875  0 0 0 0 0.62109375  0 0 0 1 0" class="icon-fecolormatrix"/></filter> <filter id="colorsf338545406"><feColorMatrix type="matrix" values="0 0 0 0 0.99609375  0 0 0 0 0.99609375  0 0 0 0 0.99609375  0 0 0 1 0" class="icon-fecolormatrix"/></filter> <filter id="colorsb5670659253"><feColorMatrix type="matrix" values="0 0 0 0 0  0 0 0 0 0  0 0 0 0 0  0 0 0 1 0" class="icon-fecolormatrix"/></filter></defs></g> <g transform="translate(57.02390670776367,7.001089096069336)" mask="url(#9a6b250e-adb9-4b19-b537-a212f0636341)"><g fill-rule="" class="tp-name iconsvg-namesvg" transform="translate(0,0)"><g><path d="M11.85-14.80L20.05-14.80Q20.05-17.35 19.03-18.25Q18-19.15 14.95-19.15L14.95-19.15L3.65-19.15L3.65-24.35L14.95-24.35Q18-24.35 19.15-24.23Q20.30-24.10 21.50-23.75L21.50-23.75Q27.05-21.65 26.75-13.70L26.75-13.70L26.75 0L12.65 0Q8.85 0 7.40-0.23Q5.95-0.45 4.85-1.15L4.85-1.15Q1.90-3.15 1.90-7.20L1.90-7.20Q1.90-9.65 3.08-11.58Q4.25-13.50 6.20-14.20L6.20-14.20Q7.90-14.80 11.85-14.80L11.85-14.80ZM20.05-5.20L20.05-9.60L12.35-9.60L11.20-9.60Q10.05-9.60 9.38-9Q8.70-8.40 8.70-7.35L8.70-7.35Q8.70-6.20 9.53-5.70Q10.35-5.20 12.35-5.20L12.35-5.20L20.05-5.20ZM29.90 0L39.05-12.05L30.25-24.35L37.75-24.35L42.90-17.15L47.85-24.35L55.75-24.35L46.65-12.05L55.75 0L47.85 0L42.90-6.95L37.75 0L29.90 0ZM65.05-14.80L79.15-14.80L79.15-9.60L65.05-9.60Q65.25-7.20 66.60-6.20Q67.95-5.20 71-5.20L71-5.20L79.15-5.20L79.15 0L70.25 0Q67.35 0 65.53-0.53Q63.70-1.05 62.10-2.25L62.10-2.25Q57.65-5.70 57.65-12.50L57.65-12.50Q57.65-16.90 60-20.20L60-20.20Q61.60-22.45 63.85-23.40Q66.10-24.35 69.75-24.35L69.75-24.35L79.15-24.35L79.15-19.15L70.25-19.15Q67.50-19.15 66.40-18.23Q65.30-17.30 65.05-14.80L65.05-14.80Z" transform="translate(-1.9000000000000001, 24.35)"/></g> <!----> <!----> <!----> <!----> <!----> <!----> <!----></g> <g fill-rule="" hollow-target="t-name" class="tp-slogan iconsvg-slogansvg" fill="#00539f" transform="translate(0.3543205261230469,31.350000381469727)"><!----> <!----> <g><path d="M5.86-6.28L5.86 0L4.88 0L4.88-0.89L4.83-0.94Q4.17 0.14 2.81 0.09L2.81 0.09Q0.84 0 0.80-1.78L0.80-1.78L0.80-6.28L1.88-6.28L1.88-2.11Q1.88-0.70 3.09-0.70L3.09-0.70Q4.69-0.75 4.83-2.81L4.83-2.81L4.83-6.28L5.86-6.28ZM7.45-6.28L8.53-6.28L8.53 0L7.45 0L7.45-6.28ZM8.53-8.58L8.53-7.41L7.45-7.41L7.45-8.58L8.53-8.58ZM18.33-4.13L18.33-4.13L17.30-4.13Q17.16-5.48 15.84-5.48L15.84-5.48Q14.16-5.39 14.06-3.14L14.06-3.14Q14.06-0.70 15.80-0.70L15.80-0.70Q17.06-0.80 17.30-2.20L17.30-2.20L18.33-2.20Q17.95 0.05 15.80 0.09L15.80 0.09Q13.08 0 12.98-2.95L12.98-2.95Q13.08-6.38 15.98-6.47L15.98-6.47Q18.05-6.42 18.33-4.13ZM19.03-3.14L19.03-3.14Q19.22-6.33 21.94-6.47L21.94-6.47Q24.66-6.33 24.84-3.14L24.84-3.14Q24.66 0 21.94 0.09L21.94 0.09Q19.22 0 19.03-3.14ZM20.11-3.14L20.11-3.14Q20.25-0.80 21.94-0.75L21.94-0.75Q23.63-0.80 23.77-3.14L23.77-3.14Q23.63-5.48 21.94-5.53L21.94-5.53Q20.25-5.48 20.11-3.14ZM27.09 0L26.02 0L26.02-6.28L27.05-6.28L27.05-5.39Q27.75-6.47 28.97-6.47L28.97-6.47Q30.05-6.47 30.56-5.48L30.56-5.48Q30.61-5.44 30.61-5.44L30.61-5.44Q31.45-6.52 32.53-6.47L32.53-6.47Q34.45-6.33 34.50-4.31L34.50-4.31L34.50 0L33.42 0L33.42-4.03Q33.47-5.53 32.25-5.48L32.25-5.48Q30.94-5.34 30.80-3.80L30.80-3.80L30.80 0L29.72 0L29.72-4.31Q29.72-5.48 28.73-5.48L28.73-5.48Q27.14-5.39 27.09-3.42L27.09-3.42L27.09 0ZM36.89-2.81L36.89-2.81Q36.94-0.84 38.63-0.70L38.63-0.70Q40.27-0.75 40.31-3.14L40.31-3.14Q40.36-5.48 38.58-5.48L38.58-5.48Q36.89-5.48 36.89-2.81ZM36.94 2.39L35.91 2.39L35.91-6.28L36.89-6.28L36.89-5.39L36.94-5.39Q36.94-5.39 36.98-5.44L36.98-5.44Q37.64-6.47 38.77-6.47L38.77-6.47Q41.25-6.33 41.39-3.33L41.39-3.33Q41.25 0 38.63 0.09L38.63 0.09Q37.55 0.09 36.98-0.66L36.98-0.66L36.94-0.66L36.94 2.39ZM42.28-3.14L42.28-3.14Q42.47-6.33 45.19-6.47L45.19-6.47Q47.91-6.33 48.09-3.14L48.09-3.14Q47.91 0 45.19 0.09L45.19 0.09Q42.47 0 42.28-3.14ZM43.36-3.14L43.36-3.14Q43.50-0.80 45.19-0.75L45.19-0.75Q46.88-0.80 47.02-3.14L47.02-3.14Q46.88-5.48 45.19-5.53L45.19-5.53Q43.50-5.48 43.36-3.14ZM54.38-4.27L54.38-4.27L54.38 0L53.34 0L53.34-3.84Q53.44-5.58 51.98-5.48L51.98-5.48Q50.39-5.39 50.34-3.42L50.34-3.42L50.34 0L49.27 0L49.27-6.28L50.30-6.28L50.30-5.39Q51.05-6.47 52.22-6.47L52.22-6.47Q54.33-6.42 54.38-4.27ZM60.23-1.97L60.23-1.97L61.27-1.97Q61.08-0.89 60.14-0.23L60.14-0.23Q59.63 0.09 58.45 0.09L58.45 0.09Q55.78 0 55.64-2.95L55.64-2.95Q55.73-6.38 58.64-6.47L58.64-6.47Q61.31-6.42 61.36-2.77L61.36-2.77L56.77-2.77Q56.77-0.70 58.59-0.70L58.59-0.70Q59.91-0.80 60.23-1.97ZM56.77-3.61L56.77-3.61L60.28-3.61Q60.14-5.48 58.50-5.48L58.50-5.48Q56.95-5.34 56.77-3.61ZM67.69-4.27L67.69-4.27L67.69 0L66.66 0L66.66-3.84Q66.75-5.58 65.30-5.48L65.30-5.48Q63.70-5.39 63.66-3.42L63.66-3.42L63.66 0L62.58 0L62.58-6.28L63.61-6.28L63.61-5.39Q64.36-6.47 65.53-6.47L65.53-6.47Q67.64-6.42 67.69-4.27ZM71.58-6.28L71.58-5.39L70.55-5.39L70.55-1.31Q70.55-0.80 71.16-0.80L71.16-0.80L71.58-0.80L71.58 0Q71.30 0 70.92 0L70.92 0Q70.83 0 70.78 0L70.78 0Q69.42 0 69.47-1.22L69.47-1.22L69.47-5.39L68.67-5.39L68.67-6.28L69.47-6.28L69.47-8.02L70.55-8.02L70.55-6.28L71.58-6.28ZM77.16-4.45L77.16-4.45L76.13-4.45Q76.13-5.53 74.63-5.53L74.63-5.53Q73.45-5.48 73.41-4.64L73.41-4.64Q73.31-4.03 74.53-3.80L74.53-3.80L75.61-3.56Q77.39-3.14 77.34-1.88L77.34-1.88Q77.25 0 74.91 0.09L74.91 0.09Q72.23 0.09 72.19-2.02L72.19-2.02L73.17-2.02Q73.27-0.70 74.91-0.70L74.91-0.70Q76.27-0.75 76.31-1.73L76.31-1.73Q76.41-2.30 75.09-2.63L75.09-2.63L73.83-2.91Q72.38-3.28 72.38-4.41L72.38-4.41Q72.47-6.33 74.77-6.47L74.77-6.47Q77.02-6.42 77.16-4.45Z" transform="translate(-0.796875, 8.578125)"/></g></g></g></g></svg>