<?xml version="1.0" standalone="no"?>
<!DOCTYPE svg PUBLIC "-//W3C//DTD SVG 1.1//EN" "http://www.w3.org/Graphics/SVG/1.1/DTD/svg11.dtd" >
<!--
2013-9-30: Created.
-->
<svg>
<metadata>
Created by iconfont
</metadata>
<defs>

<font id="axeIcon" horiz-adv-x="1024" >
  <font-face
    font-family="axeIcon"
    font-weight="500"
    font-stretch="normal"
    units-per-em="1024"
    ascent="896"
    descent="-128"
  />
    <missing-glyph />
    
    <glyph glyph-name="lishi" unicode="&#58881;" d="M515.762599-62.870845c246.966761 0 447.17029 200.203529 447.17029 447.170289 0 246.966761-200.203529 447.17029-447.17029 447.17029-246.966761 0-447.17029-200.203529-447.170289-447.17029 0-246.966761 200.203529-447.17029 447.170289-447.170289z m0-63.88147c-282.251292 0-511.051759 228.800468-511.051759 511.051759 0 282.251292 228.800468 511.051759 511.051759 511.05176 282.238815 0 511.051759-228.800468 511.05176-511.05176 0-282.251292-228.800468-511.051759-511.05176-511.051759z m0 0M547.703334 703.706794c0 17.642265-14.29847 31.940735-31.940735 31.940735s-31.940735-14.29847-31.940735-31.940735v-343.362901c0-9.195438 3.955161-17.954187 10.85486-24.017935l191.644409-167.688859c13.262891-11.640901 33.462911-10.318355 45.103812 2.93206 11.640901 13.262891 10.318355 33.462911-2.93206 45.103811L547.703334 374.841992V703.706794z m0 0"  horiz-adv-x="1060" />

    
    <glyph glyph-name="gengduo" unicode="&#58882;" d="M66.488889 684.218182h891.022222c28.198788 0 50.980202 22.238384 50.980202 49.648485 0 27.397172-22.768485 49.648485-50.980202 49.648485H66.488889C38.341818 783.515152 15.508687 761.276768 15.508687 733.866667s22.833131-49.648485 50.980202-49.648485z m891.009293-248.242424H66.488889C38.277172 435.975758 15.508687 413.737374 15.508687 386.327273s22.768485-49.648485 50.980202-49.648485h891.022222c28.198788 0 50.980202 22.238384 50.980202 49.648485-0.012929 27.410101-22.923636 49.648485-50.993131 49.648485z m0-351.63798H66.488889c-28.134141 0-50.980202-22.238384-50.980202-49.648485s22.833131-49.648485 50.980202-49.648485h891.022222c28.198788 0 50.980202 22.238384 50.980202 49.648485-0.012929 27.397172-22.781414 49.648485-50.993131 49.648485z m0 0"  horiz-adv-x="1024" />

    
    <glyph glyph-name="youjiantou" unicode="&#58884;" d="M677.391515 22.083232c-7.86101 0-15.618586 2.999596-21.617778 8.895354L324.473535 362.278788c-11.998384 11.894949-11.998384 31.340606 0 43.235555L655.670303 736.711111c5.999192 5.999192 13.756768 8.895354 21.617778 8.895354 7.757576 0 15.618586-2.999596 21.617778-8.895354 11.894949-11.894949 11.894949-31.237172 0-43.235555L389.223434 383.896566 698.905859 74.214141c11.894949-11.998384 11.894949-31.340606 0-43.235555-5.895758-5.895758-13.756768-8.895354-21.514344-8.895354z m0 0"  horiz-adv-x="1024" />

    
    <glyph glyph-name="wenda" unicode="&#58889;" d="M522.96404-82.64404c-9.929697 0-23.169293 6.619798-29.789091 13.239596l-112.536565 115.846464H109.226667c-59.578182 0-109.226667 46.338586-109.226667 109.226667V741.520808c0 59.578182 49.648485 109.226667 109.226667 109.226667H949.94101c59.578182 0 109.226667-49.648485 109.226667-109.226667v-589.16202c0-62.888081-49.648485-109.226667-109.226667-109.226667-16.549495 0-26.479192 9.929697-26.479192 26.479192s9.929697 26.479192 26.479192 26.479192c26.479192 0 52.958384 26.479192 52.958384 52.958384V741.520808c0 26.479192-26.479192 52.958384-52.958384 52.958384H109.226667c-26.479192 0-52.958384-26.479192-52.958384-52.958384v-589.16202c0-29.789091 26.479192-52.958384 52.958384-52.958384h284.651313c9.929697 0 13.239596-3.309899 19.859394-9.929697l115.846464-115.846465 112.536566 115.846465c6.619798 6.619798 9.929697 9.929697 19.859394 9.929697h105.916768c16.549495 0 26.479192-9.929697 26.479192-26.479192s-9.929697-26.479192-26.479192-26.479192h-95.987071l-112.536566-115.846464c-9.929697-6.619798-19.859394-13.239596-36.408889-13.239596z m0 0M334.299798 456.869495c0-29.789091-26.479192-56.268283-56.268283-56.268283S221.763232 427.080404 221.763232 456.869495s26.479192 56.268283 56.268283 56.268283 56.268283-23.169293 56.268283-56.268283M585.852121 460.179394c0-29.789091-26.479192-56.268283-56.268283-56.268283-29.789091 0-56.268283 26.479192-56.268282 56.268283 0 29.789091 26.479192 56.268283 56.268282 56.268283 29.789091 0 56.268283-26.479192 56.268283-56.268283m251.552323-3.309899c0-29.789091-26.479192-56.268283-56.268282-56.268283-29.789091 0-56.268283 26.479192-56.268283 56.268283s26.479192 56.268283 56.268283 56.268283c29.789091 0 56.268283-23.169293 56.268282-56.268283"  horiz-adv-x="1060" />

    
    <glyph glyph-name="pinglun" unicode="&#58888;" d="M330.744242 10.627879l194.779798 129.861818 16.665859 11.106263h383.844848c36.486465 0 66.19798 29.659798 66.19798 66.146262v529.19596c0 36.434747-29.711515 66.107475-66.19798 66.107475H132.305455c-36.486465 0-66.146263-29.659798-66.146263-66.107475v-529.19596c0-36.486465 29.659798-66.146263 66.146263-66.146262h198.438787v-140.968081m-66.146262-123.578182V85.449697H132.305455c-73.024646 0-132.305455 59.216162-132.305455 132.292525v529.19596C0 819.975758 59.267879 879.191919 132.305455 879.191919h793.742222c73.076364 0 132.357172-59.216162 132.357171-132.240808v-529.195959c0-73.076364-59.267879-132.292525-132.357171-132.292526h-363.830303L264.59798-112.950303z m0 0"  horiz-adv-x="1058" />

    
    <glyph glyph-name="down_huaban1" unicode="&#58998;" d="M864 384.2c-17.7 0-32-14.3-32-32V32H192V352.2c0 17.7-14.3 32-32 32s-32-14.3-32-32V0c0-17.7 14.3-32 32-32h704c17.7 0 32 14.3 32 32V352.2c0 17.7-14.3 32-32 32zM488.7 208.7c6.1-7.3 15.1-11.5 24.6-11.5s18.5 4.2 24.6 11.5l177 212.3c11.3 13.6 9.5 33.8-4.1 45.1-13.6 11.3-33.8 9.5-45.1-4.1L544.5 316.7V768c0 17.7-14.3 32-32 32s-32-14.3-32-32v-449.6L360.8 462c-11.3 13.6-31.5 15.4-45.1 4.1-13.6-11.3-15.4-31.5-4.1-45.1l177.1-212.3z"  horiz-adv-x="1024" />

    
    <glyph glyph-name="help_huaban1" unicode="&#59000;" d="M866 533.8c-19.3 45.7-47 86.8-82.3 122-35.3 35.3-76.3 62.9-122 82.3-47.4 20-97.7 30.2-149.5 30.2s-102.1-10.2-149.5-30.2c-45.7-19.3-86.8-47-122-82.3-35.3-35.3-62.9-76.3-82.3-122-20-47.4-30.2-97.7-30.2-149.5s10.2-102.1 30.2-149.5c19.3-45.7 47-86.8 82.3-122 35.3-35.3 76.3-62.9 122-82.3 47.4-20 97.7-30.2 149.5-30.2s102.1 10.2 149.5 30.2c45.7 19.3 86.8 47 122 82.3 35.3 35.3 62.9 76.3 82.3 122 20 47.4 30.2 97.7 30.2 149.5 0 51.9-10.1 102.2-30.2 149.5zM512.2 64.3c-176.4 0-320 143.6-320 320s143.6 320 320 320 320-143.6 320-320-143.5-320-320-320zM479.6 251.6h65.3v-66.8h-65.3zM589.9 552.3c-11 11-23.7 19.2-37.8 24.5-14 5.3-29 7.6-44.6 6.9-14.7-0.8-28.6-4.1-41.5-10-12.8-5.8-24.1-13.7-33.8-23.3-9.7-9.7-17.4-21.1-23.1-33.9-5.7-12.9-8.8-26.7-9.2-41-0.4-7.7 0.1-15.2 1.5-22.5 1.3-7.2 3.3-14.2 6-21l4.7-12.1 60.6 23.3-4.1 11.9c-2.1 6.1-3.1 12.1-2.8 17.8 0.5 12.6 4.9 22.9 13.4 31.5 8.4 8.6 18.6 13 31.1 13.5h0.5c6.5 0.5 12.4-0.3 17.9-2.4 5.7-2.2 11-5.6 15.8-10 9.5-9.6 14.2-20.7 14.2-34 0-9-2.2-17-6.8-24.3-4.6-7.4-10.8-12.9-18.7-16.9l-0.1-0.1c-16.5-8.4-29.6-20.3-39.1-35.4-9.5-15.1-14.3-32.2-14.3-50.7v-70.4h65.8v70.4c0 6 1.5 11.2 4.5 16 3 4.8 7.2 8.4 12.7 11.1l0.3 0.1c19.1 9.8 34.2 23.6 45.1 41.2 10.9 17.6 16.5 37.5 16.5 59 0 15.5-3.1 30.4-9.2 44.3-6.1 13.7-14.6 26-25.5 36.5z"  horiz-adv-x="1024" />

    
    <glyph glyph-name="logout" unicode="&#59003;" d="M512 336.8c17.7 0 32 14.3 32 32v374c0 17.7-14.3 32-32 32s-32-14.3-32-32v-374c0-17.7 14.3-32 32-32zM856.7 567.4C831.3 620.2 794 667.3 749 703.7c-13.7 11.1-33.9 9-45-4.8-11.1-13.7-9-33.9 4.8-45 78.8-63.7 124-159.7 124-263.3 0-183.9-143.9-333.4-320.8-333.4S191.2 206.8 191.2 390.6c0 70.1 20.7 137.2 59.9 194 18.1 26.2 39.6 49.5 64.1 69.3 13.7 11.1 15.9 31.3 4.8 45-11.1 13.7-31.3 15.9-45 4.8-29.3-23.7-55-51.5-76.6-82.7-46.6-67.5-71.2-147.2-71.2-230.4 0-53.5 10.1-105.4 30.1-154.3 19.3-47.3 47-89.8 82.2-126.3 35.3-36.6 76.5-65.3 122.3-85.4 47.6-20.8 98.1-31.4 150.2-31.4s102.6 10.6 150.2 31.4c45.8 20.1 87 48.8 122.3 85.4 35.2 36.5 62.9 79 82.2 126.3 20 48.9 30.1 100.8 30.1 154.3 0 62.1-13.5 121.6-40.1 176.8z"  horiz-adv-x="1024" />

    
    <glyph glyph-name="call" unicode="&#59053;" d="M224.341333 659.114667c-19.285333 0-31.488-15.018667-29.994666-29.738667 29.44-297.173333 265.856-533.589333 563.029333-563.029333 14.72-1.493333 29.738667 10.709333 29.738667 29.994666V214.186667a33.066667 33.066667 0 0 1-22.613334 31.402666l-114.56 38.186667a33.152 33.152 0 0 1-33.877333-7.978667l-18.346667-18.346666a65.536 65.536 0 0 0-83.328-8.021334c-62.634667 42.837333-99.072 79.061333-137.941333 137.6a65.365333 65.365333 0 0 0 8.533333 82.346667l18.773334 18.773333a33.066667 33.066667 0 0 1 7.978666 33.834667l-38.186666 114.56a33.066667 33.066667 0 0 1-31.402667 22.613333H224.426667z m-95.872-36.266667C122.709333 680.874667 170.496 725.333333 224.341333 725.333333H342.186667c42.752 0 80.682667-27.306667 94.208-67.882666l38.186666-114.56a99.285333 99.285333 0 0 0-23.978666-101.632l-18.432-18.432c33.408-50.176 63.488-80.298667 119.04-118.4l18.090666 18.133333a99.285333 99.285333 0 0 0 101.632 23.978667l114.56-38.186667A99.242667 99.242667 0 0 0 853.333333 214.144v-117.76c0-53.888-44.416-101.674667-102.485333-95.914667-328.533333 32.554667-589.824 293.802667-622.378667 622.378667z m460.032 69.376c0 18.261333 14.805333 33.109333 33.109334 33.109333C749.610667 725.333333 853.333333 621.568 853.333333 493.610667a33.109333 33.109333 0 0 0-66.218666 0 165.546667 165.546667 0 0 1-165.546667 165.546666 33.109333 33.109333 0 0 0-33.066667 33.066667z m0-132.394667c0 18.261333 14.805333 33.066667 33.109334 33.066667a99.328 99.328 0 0 0 99.285333-99.285333 33.109333 33.109333 0 0 0-66.176 0 33.109333 33.109333 0 0 1-33.109333 33.109333 33.109333 33.109333 0 0 0-33.109334 33.109333z"  horiz-adv-x="1024" />

    
    <glyph glyph-name="calendar" unicode="&#59054;" d="M726.570667 729.6c15.146667 0 28.16-10.112 32.213333-24.448l0.981333-4.437333 0.298667-4.650667V650.666667l3.242667-0.426667A111.616 111.616 0 0 0 856.661333 554.666667l0.725334-7.424 0.213333-7.168v-390.101334a111.530667 111.530667 0 0 0-104.490667-111.317333l-7.04-0.213333H277.930667a111.530667 111.530667 0 0 0-111.317334 104.490666l-0.213333 7.04V540.032c0 55.424 40.576 101.888 94.293333 110.208l3.2 0.426667V696.064c0 15.445333 10.453333 28.416 24.661334 32.341333l4.352 0.853334 4.522666 0.341333c15.189333 0 28.16-10.112 32.256-24.448l0.938667-4.437333 0.341333-4.650667-0.042666-44.458667h147.541333V696.064c0 13.482667 8.021333 25.258667 19.84 30.592l4.650667 1.664 4.394666 0.938667L512 729.6c15.146667 0 28.16-10.112 32.256-24.448l0.938667-4.437333 0.341333-4.650667-0.085333-44.458667h147.541333V696.064c0 13.482667 8.021333 25.258667 19.882667 30.592l4.608 1.664 4.437333 0.938667 4.650667 0.341333z m63.957333-320.597333H233.386667l0.042666-259.072c0-22.912 17.365333-41.813333 39.68-44.202667l4.821334-0.298667h468.138666c22.912 0 41.813333 17.365333 44.202667 39.68l0.298667 4.821334-0.042667 259.072zM746.069333 584.533333H277.930667c-22.912 0-41.813333-17.365333-44.202667-39.68l-0.298667-4.821333-0.042666-63.957333h557.141333v64c0 22.912-17.322667 41.813333-39.637333 44.202666l-4.821334 0.256z"  horiz-adv-x="1024" />

    
    <glyph glyph-name="card" unicode="&#59055;" d="M128 544A96 96 0 0 0 224 640h533.333333A96 96 0 0 0 853.333333 544v-384a96 96 0 0 0-96-96H224A96 96 0 0 0 128 160v384z m96 32a32 32 0 0 1-32-32V512h597.333333v32a32 32 0 0 1-32 32H224z m565.333333-128h-597.333333v-288c0-17.664 14.336-32 32-32h533.333333a32 32 0 0 1 32 32V448zM288 256h192a32 32 0 0 0 0-64h-192a32 32 0 0 0 0 64z"  horiz-adv-x="1024" />

    
    <glyph glyph-name="Cube" unicode="&#59056;" d="M483.754667 755.84c29.525333 16.213333 65.28 16.213333 94.805333 0l262.186667-144.213333a98.389333 98.389333 0 0 0 50.901333-86.186667v-282.88c0-35.925333-19.541333-68.906667-50.901333-86.186667l-262.186667-144.213333c-29.525333-16.213333-65.28-16.213333-94.805333 0l-262.144 144.213333A98.304 98.304 0 0 0 170.666667 242.55999999999995v282.88a98.346667 98.346667 0 0 0 50.944 86.186667l262.144 144.213333z m63.189333-57.429333a32.810667 32.810667 0 0 1-31.573333 0L283.434667 570.88l247.722666-148.608 247.722667 148.608-231.936 127.573333z m279.168-175.658667l-262.186667-157.312v-286.506667l245.205334 134.826667a32.768 32.768 0 0 1 16.981333 28.757333V522.752zM498.389333 78.93333299999995v286.506667L236.202667 522.752v-280.234667c0-11.946667 6.485333-22.954667 16.981333-28.757333l245.205333-134.826667z"  horiz-adv-x="1024" />

    
    <glyph glyph-name="edit" unicode="&#59057;" d="M628.821333 698.282667a92.373333 92.373333 0 0 0 130.56 0L826.325333 631.466667a92.416 92.416 0 0 0 0-130.602667L395.221333 69.717333A92.373333 92.373333 0 0 0 329.898667 42.666667h-128.426667A30.805333 30.805333 0 0 0 170.666667 73.472v128.426667c0 24.490667 9.728 48 27.050666 65.322666L628.821333 698.282667z m87.04-43.52a30.805333 30.805333 0 0 1-43.52 0L614.485333 596.906667l110.421334-110.421334 57.856 57.856a30.805333 30.805333 0 0 1 0 43.52l-66.901334 66.901334z m-34.517333-211.797334l-110.378667 110.378667-329.685333-329.642667a30.762667 30.762667 0 0 1-9.045333-21.76v-97.706666h97.664a30.762667 30.762667 0 0 1 21.76 9.045333l329.685333 329.685333z"  horiz-adv-x="1024" />

    
    <glyph glyph-name="filefolder" unicode="&#59058;" d="M400.128 682.666667c25.472 0 49.92-10.453333 67.925333-29.013334l67.84-70.101333h221.44c53.034667 0 96-44.373333 96-99.072v-342.698667C853.333333 87.04 810.368 42.666667 757.333333 42.666667H224C170.965333 42.666667 128 87.04 128 141.781333V583.552C128 638.293333 170.965333 682.666667 224 682.666667h176.128z m0-66.048H224a32.554667 32.554667 0 0 1-32-33.066667v-441.770667c0-18.261333 14.336-33.066667 32-33.066666h533.333333c17.664 0 32 14.805333 32 33.066666V484.48a32.554667 32.554667 0 0 1-32 33.024h-234.666666a31.402667 31.402667 0 0 0-22.613334 9.685333L422.826667 606.933333a31.488 31.488 0 0 1-22.698667 9.685334zM629.333333 256a32 32 0 1 0 0-64h-277.333333a32 32 0 1 0 0 64h277.333333z"  horiz-adv-x="1024" />

    
    <glyph glyph-name="love" unicode="&#59059;" d="M781.098667 604.8c-61.738667 64.512-160.085333 70.186667-228.266667 13.226667l-40.832-34.133334-40.832 34.133334c-68.181333 56.96-166.528 51.285333-228.266667-13.226667-62.890667-65.706667-66.730667-169.514667-7.765333-236.544 51.285333-58.368 111.061333-123.008 164.864-172.8 26.965333-24.96 51.669333-45.525333 72.576-59.648 22.570667-15.232 35.2-19.072 39.424-19.072 4.266667 0 16.853333 3.84 39.424 19.072 20.906667 14.08 45.653333 34.688 72.576 59.648 53.802667 49.792 113.578667 114.432 164.864 172.8 58.922667 66.986667 55.125333 170.837333-7.765333 236.544zM512.085333 671.146667c94.165333 78.634667 229.845333 70.826667 315.136-18.218667 86.314667-90.154667 93.44-235.477333 9.685334-330.794667-51.84-58.922667-113.365333-125.568-169.642667-177.706666-28.074667-26.026667-55.594667-49.066667-80.469333-65.877334-23.168-15.658667-49.92-29.994667-74.794667-29.994666-24.917333 0-51.626667 14.336-74.794667 29.994666-24.874667 16.810667-52.394667 39.850667-80.469333 65.877334-56.32 52.138667-117.802667 118.784-169.642667 177.706666-83.797333 95.317333-76.629333 240.64 9.685334 330.794667 85.290667 89.002667 221.013333 96.853333 315.136 18.218667L512 671.146667l0.085333 0.042666z"  horiz-adv-x="1024" />

    
    <glyph glyph-name="mailbox" unicode="&#59060;" d="M343.253333 663.253333a31.104 31.104 0 0 1-30.122666-23.466666l-71.68-286.805334H387.84c35.754667 0 57.6-28.672 65.450667-51.370666a62.122667 62.122667 0 0 1 117.333333 0c7.850667 22.698667 29.696 51.370667 65.450667 51.370666h146.432l-71.68 286.805334a31.104 31.104 0 0 1-30.122667 23.466666h-337.493333z m448-372.352h-155.050666l-1.664-1.152a20.650667 20.650667 0 0 1-5.205334-8.448 124.16 124.16 0 0 0-234.666666 0 20.650667 20.650667 0 0 1-5.205334 8.448l-1.706666 1.152H232.789333v-155.136c0-17.152 13.866667-31.018667 31.018667-31.018666h496.469333a31.061333 31.061333 0 0 1 31.018667 31.018666v155.136zM252.928 654.848A93.098667 93.098667 0 0 0 343.253333 725.333333h337.493334c42.709333 0 79.957333-29.056 90.325333-70.485333L853.333333 325.76v-189.994667A93.098667 93.098667 0 0 0 760.234667 42.666667H263.765333A93.098667 93.098667 0 0 0 170.666667 135.765333v189.994667l82.261333 329.088z m103.936-84.650667c0 17.109333 13.866667 31.018667 31.018667 31.018667h248.234666a31.061333 31.061333 0 0 0 0-62.08H387.882667a31.061333 31.061333 0 0 0-31.018667 31.061333z m-31.061333-124.16c0 17.152 13.909333 31.061333 31.061333 31.061334h310.272a31.061333 31.061333 0 0 0 0-62.08H356.864a31.061333 31.061333 0 0 0-31.061333 31.061333z"  horiz-adv-x="1024" />

    
    <glyph glyph-name="envelope" unicode="&#59061;" d="M764.842667 597.333333c33.962667 0 64.426667-18.602667 79.274666-47.36 4.821333-9.386667 7.808-19.498667 8.832-29.952l0.384-7.936v-384.170666c0-45.056-36.266667-81.92-82.176-85.034667l-6.314666-0.213333H259.157333c-46.72 0-85.034667 34.901333-88.277333 79.146666L170.666667 127.914667V512.085333c0 13.269333 3.2 26.197333 9.216 37.888a88.576 88.576 0 0 0 72.064 47.061334L259.2 597.333333h505.6z m23.850666-110.677333l-234.368-122.922667a91.477333 91.477333 0 0 0-77.952-3.2l-6.698666 3.2-234.410667 122.88v-358.698666c0-11.306667 8.661333-20.736 20.053333-22.528l3.84-0.298667h505.685334c11.904 0 21.717333 8.32 23.552 19.114667l0.341333 3.712-0.042667 358.741333z m-43.349333 48.256H278.613333l221.866667-116.352c5.973333-3.114667 13.013333-3.669333 19.328-1.578667l3.669333 1.578667 221.866667 116.352z"  horiz-adv-x="1024" />

    
    <glyph glyph-name="more" unicode="&#59062;" d="M490.154667 673.877333a90.624 90.624 0 0 0 79.488 3.328l6.826666-3.328 247.296-133.973333a60.16 60.16 0 0 0 5.290667-102.826667l-5.290667-3.157333-39.978666-17.92 39.978666-21.674667a60.16 60.16 0 0 0 5.290667-102.826666l-5.290667-3.157334-39.978666-17.92 39.978666-21.674666a60.16 60.16 0 0 0 5.290667-102.826667l-5.290667-3.2-247.253333-133.930667a90.624 90.624 0 0 0-79.488-3.328l-6.826667 3.328-247.296 133.973334a60.16 60.16 0 0 0-5.290666 102.826666l5.290666 3.157334 39.978667 17.92-39.978667 21.674666a60.16 60.16 0 0 0-5.290666 102.826667l5.290666 3.157333 39.978667 17.92-39.978667 21.674667a60.16 60.16 0 0 0-5.290666 102.826667l5.290666 3.2 247.253334 133.930666zM346.154667 233.472l-73.173334-35.84 247.338667-133.973333c6.741333-3.669333 14.72-4.266667 21.845333-1.834667l4.181334 1.834667 247.338666 130.218666-72.192 39.082667-144.981333-78.549333a90.624 90.624 0 0 0-79.488-3.370667l-6.826667 3.370667-144.042666 79.061333z m0 145.621333l-73.173334-35.882666 247.338667-133.973334c6.741333-3.626667 14.72-4.266667 21.845333-1.792l4.181334 1.834667 247.338666 130.176-72.192 39.082667-144.981333-78.506667a90.624 90.624 0 0 0-79.488-3.413333l-6.826667 3.413333-144.042666 79.061333z m178.346666 241.749334l-4.181333-1.834667-247.338667-130.218667 247.338667-133.930666c6.741333-3.669333 14.72-4.266667 21.845333-1.834667l4.181334 1.834667 247.338666 130.176-247.338666 133.973333a27.306667 27.306667 0 0 1-17.493334 2.944l-4.352-1.109333z"  horiz-adv-x="1024" />

    
    <glyph glyph-name="message" unicode="&#59063;" d="M513.578667 725.333333a339.754667 339.754667 0 0 0 0-679.509333c-53.12 0-104.533333 12.202667-148.181334 35.157333l-11.733333 6.528-91.861333-39.381333c-52.394667-22.442667-105.344 28.074667-87.68 80.426667l2.005333 5.248 39.552 88.192A339.754667 339.754667 0 0 0 513.536 725.333333z m0-69.418666a270.293333 270.293333 0 0 1-236.714667-400.981334l6.229333-10.666666 8.533334-17.322667-47.616-110.976 114.773333 47.36 13.482667-8.234667a270.293333 270.293333 0 1 1 141.269333 500.821334z m122.026666-296.618667a34.730667 34.730667 0 0 0 4.352-69.162667l-4.352-0.298666h-244.053333a34.730667 34.730667 0 0 0-4.352 69.162666l4.352 0.298667h244.053333z m-152.533333 122.026667a34.730667 34.730667 0 0 0 4.352-69.205334l-4.352-0.256H391.552a34.730667 34.730667 0 0 0-4.352 69.162667l4.352 0.256h91.52z"  horiz-adv-x="1024" />

    
    <glyph glyph-name="Piechart" unicode="&#59064;" d="M503.125333 663.424a302.250667 302.250667 0 0 1-203.818666-492.032l203.818666 203.776V663.466667z m60.416 0v-270.506667h270.506667a302.378667 302.378667 0 0 1-270.506667 270.506667z m270.506667-330.965333h-288.213333l-203.776-203.818667a302.250667 302.250667 0 0 1 492.032 203.776zM170.666667 362.66666699999996a362.666667 362.666667 0 1 0 725.333333 0 362.666667 362.666667 0 0 0-725.333333 0z"  horiz-adv-x="1024" />

    
    <glyph glyph-name="music" unicode="&#59065;" d="M747.946667 677.205333c0 19.413333-19.2 33.621333-39.253334 29.397334L419.968 643.584a30.592 30.592 0 0 1-24.832-29.354667v-50.005333L747.946667 640.853333v36.352z m0-98.432L395.178667 501.845333v-352.853333c0-50.602667-37.802667-94.250667-90.24-103.936l-1.877334-0.298667C234.581333 31.744 170.666667 81.109333 170.666667 147.2c0 49.962667 37.248 92.672 88.96 102.4l71.381333 13.610667V614.229333c0 42.368 30.933333 79.018667 74.581333 88.448l288.64 62.976c60.288 13.013333 117.888-29.994667 117.888-88.448v-437.376c0-50.602667-37.802667-94.208-90.24-103.893333l-1.877333-0.298667c-68.48-13.013333-132.394667 36.352-132.394667 102.4 0 49.92 37.248 92.672 88.96 102.357334l71.381334 13.653333V578.730667z m0-286.549333l-58.794667-11.221333c-21.76-3.925333-37.418667-22.101333-37.418667-43.008 0-27.861333 26.88-48.426667 55.68-43.008l1.877334 0.298666c22.485333 4.266667 38.656 22.741333 38.656 44.544v52.394667z m-416.938667-90.88l-58.752-11.178667c-21.76-3.968-37.461333-22.144-37.461333-43.008 0-27.904 26.88-48.469333 55.68-43.008l1.877333 0.298667c22.485333 4.224 38.656 22.698667 38.656 44.501333V201.386667z"  horiz-adv-x="1024" />

    
    <glyph glyph-name="share" unicode="&#59066;" d="M721.493333 702.08a65.962667 65.962667 0 1 1 0-131.925333 65.962667 65.962667 0 0 1 0 131.925333z m-131.925333-65.962667a131.882667 131.882667 0 1 0 32.426667-86.613333l-233.130667-116.522667a131.84 131.84 0 0 0 0-55.296l233.130667-116.565333a131.882667 131.882667 0 1 0-29.525334-58.965333l-233.130666 116.608a131.882667 131.882667 0 1 0 0 173.141333l233.130666 116.608a131.84 131.84 0 0 0-2.901333 27.605333zM259.882667 471.253333a65.962667 65.962667 0 1 1 0.042666-131.925333 65.962667 65.962667 0 0 1-0.042666 131.925333z m461.568-230.784a65.92 65.92 0 1 1-0.042667-131.84 65.92 65.92 0 0 1 0.042667 131.84z"  horiz-adv-x="1024" />

    
    <glyph glyph-name="Openenvelope" unicode="&#59067;" d="M469.632 672a89.386667 89.386667 0 0 0 78.037333 3.242667l6.698667-3.242667 282.112-152.021333a32 32 0 0 0 16.554667-23.722667l0.298666-4.352v-361.770667a87.893333 87.893333 0 0 0-82.176-87.253333l-6.314666-0.213333H259.157333a88.064 88.064 0 0 0-88.277333 81.237333L170.666667 130.133333V491.946667c0 10.24 4.949333 19.754667 13.141333 25.728l3.712 2.346666 282.112 152.021334z m319.061333-233.941333l-234.325333-126.250667a89.386667 89.386667 0 0 0-78.037333-3.242667l-6.698667 3.242667-234.368 126.293333v-307.968c0-11.690667 8.661333-21.418667 20.053333-23.210666l3.84-0.341334h505.685334c11.861333 0 21.717333 8.533333 23.552 19.754667l0.341333 3.84-0.042667 307.882667z m-284.458666 179.413333l-3.712-1.621333L270.506667 491.946667l230.058666-124.032c5.930667-3.2 12.885333-3.712 19.2-1.578667l3.712 1.578667 229.973334 124.032-229.973334 123.904a24.192 24.192 0 0 1-15.402666 2.56l-3.84-0.938667z"  horiz-adv-x="1024" />

    
    <glyph glyph-name="image" unicode="&#59068;" d="M896 593.066667c0 49.493333-40.576 89.6-90.666667 89.6H261.333333C211.242667 682.666667 170.666667 642.56 170.666667 593.066667v-418.133334c0-49.493333 40.576-89.6 90.666666-89.6h544C855.424 85.333333 896 125.44 896 174.933333V593.066667z m-90.666667 29.866666c16.682667 0 30.208-13.397333 30.208-29.866666v-166.826667L757.418667 503.466667a60.928 60.928 0 0 1-85.504 0l-168.789334-166.826667L455.168 384a60.928 60.928 0 0 1-85.461333 0l-138.581334-136.96V593.066667c0 16.469333 13.525333 29.866667 30.208 29.866666h544zM233.002667 164.437333l179.456 177.322667 90.666666-89.6 211.541334 209.066667 120.874666-119.466667v-166.826667c0-16.469333-13.525333-29.866667-30.208-29.866666H261.333333a30.293333 30.293333 0 0 0-28.330666 19.370666zM412.458667 503.466667c0 32.981333-27.093333 59.733333-60.458667 59.733333s-60.458667-26.752-60.458667-59.733333c0-32.981333 27.093333-59.733333 60.458667-59.733334s60.458667 26.752 60.458667 59.733334z"  horiz-adv-x="1024" />

    
    <glyph glyph-name="star" unicode="&#59069;" d="M453.973333 731.904c23.722667 48.128 92.330667 48.128 116.053334 0l83.84-170.112 186.922666-27.904c52.736-7.850667 73.813333-72.533333 35.925334-109.952l-135.253334-133.546667 31.445334-187.946666c8.874667-52.778667-46.549333-92.842667-93.866667-67.925334L512 122.453333l-167.04-87.893333c-47.317333-24.917333-102.741333 15.146667-93.866667 67.925333l31.445334 187.904-135.253334 133.546667c-37.930667 37.461333-16.810667 102.144 35.925334 109.994667l186.88 27.904 83.882666 170.112z m58.026667-28.586667L413.141333 502.826667l-220.416-32.853334 159.146667-157.226666-36.992-221.013334L512 195.584l197.12-103.765333-36.992 221.013333 159.146667 157.141333-220.416 32.896L512 703.36z"  horiz-adv-x="1024" />

    
    <glyph glyph-name="home" unicode="&#59070;" d="M455.509333 707.157333a96.768 96.768 0 0 0 106.496 4.266667l6.485334-4.266667 314.325333-226.56c14.293333-10.325333 17.493333-30.165333 7.04-44.330666a32.213333 32.213333 0 0 0-40.661333-9.472l-4.010667 2.474666-45.226667 32.554667v-324.010667a95.488 95.488 0 0 0-89.130666-94.890666L704 42.666667h-384a95.658667 95.658667 0 0 0-95.744 88.32l-0.256 6.826666v324.010667l-45.226667-32.554667a32.170667 32.170667 0 0 0-44.672 6.997334 31.573333 31.573333 0 0 0 3.456 41.301333l3.626667 2.986667 314.325333 226.56z m37.674667-51.285333l-205.226667-147.925333v-370.133334c0-17.493333 14.378667-31.701333 32-31.701333H384v190.293333a95.573333 95.573333 0 0 0 96 95.104h64a95.573333 95.573333 0 0 0 96-95.146666v-190.293334h64c17.706667 0 32 14.250667 32 31.744V507.946667l-205.141333 147.925333a32.213333 32.213333 0 0 1-37.632 0z m50.773333-327.808h-64a31.872 31.872 0 0 1-32-31.701333v-190.293334h128v190.293334a31.872 31.872 0 0 1-32 31.701333z"  horiz-adv-x="1024" />

    
    <glyph glyph-name="file" unicode="&#59071;" d="M593.621333 713.685333l206.506667-182.144c6.272-6.314667 10.538667-24.832 10.538667-33.749333v-396.458667C810.666667 45.354667 766.08 0 711.125333 0H312.874667C257.92 0 213.333333 45.354667 213.333333 101.333333V624C213.333333 679.978667 257.92 725.333333 312.874667 725.333333h239.530666c11.818667 0 31.146667-1.28 41.216-11.648zM512 657.792H312.874667a33.493333 33.493333 0 0 1-33.152-33.792v-522.666667c0-18.645333 14.848-33.792 33.152-33.792h398.250666c18.304 0 33.152 15.146667 33.152 33.792v362.666667h-132.693333C556.501333 464 512 509.354667 512 565.333333V657.792z m99.541333-421.333333c18.346667 0 33.194667-15.146667 33.194667-33.792a33.493333 33.493333 0 0 0-33.194667-33.792H412.458667a33.493333 33.493333 0 0 0-33.194667 33.792c0 18.645333 14.848 33.792 33.194667 33.792h199.082666zM512 371.541333c18.346667 0 33.194667-15.104 33.194667-33.749333a33.493333 33.493333 0 0 0-33.194667-33.792H412.458667a33.493333 33.493333 0 0 0-33.194667 33.792c0 18.645333 14.848 33.749333 33.194667 33.749333H512z m66.389333 267.861334V565.333333c0-17.066667 12.458667-31.232 28.672-33.450666l4.48-0.341334h85.845334l-119.04 107.861334z"  horiz-adv-x="1024" />

    
    <glyph glyph-name="download" unicode="&#59072;" d="M496 640a272.042667 272.042667 0 0 0 233.301333-132.181333 207.957333 207.957333 0 0 0-41.301333-411.818667h-16a32.042667 32.042667 0 0 0 0 64h16a143.914667 143.914667 0 0 1 144 144 144.256 144.256 0 0 1-126.805333 143.018667 32.213333 32.213333 0 0 0-24.576 16.981333 208.085333 208.085333 0 0 1-392.362667-85.418667 32 32 0 0 0-24.064-29.44 96.085333 96.085333 0 0 1 23.808-189.141333h64a32.042667 32.042667 0 0 0 0-64h-64A160 160 0 0 0 128 256c0 66.56 40.618667 123.52 98.304 147.498667A272.170667 272.170667 0 0 0 496 640zM512 416c17.664 0 32-14.421333 32-32v-178.858667l41.386667 41.6a32 32 0 1 0 45.226666-45.44l-96-96a32 32 0 0 0-45.226666 0l-96 96a32 32 0 1 0 45.226666 45.44l41.386667-41.6V384c0 17.578667 14.336 32 32 32z"  horiz-adv-x="1024" />

    
    <glyph glyph-name="icon--scrm-39" unicode="&#58892;" d="M512.005884 95.847386c-159.136169 0-288.14673 129.010561-288.14673 288.14673s129.010561 288.14673 288.14673 288.14673 288.14673-129.010561 288.14673-288.14673-129.010561-288.14673-288.14673-288.14673z m60.721928 352.516681h11.30887c-11.308871 53.319972-65.040716 91.718354-126.798211 91.718354-69.783146 0-125.327235-48.424561-125.327235-111.770712 0-36.63321 19.452199-64.993645 50.330947-88.329223l-13.003437-40.02234 43.893952 23.32381c14.333199-3.836308 29.054736-6.060425 43.882184-6.637048h11.320639a75.229291 75.229291 0 0 0-3.294989 26.712941 108.661655 108.661655 0 0 0 32.337957 75.643518 102.064617 102.064617 0 0 0 74.902146 29.3607h0.447177z m-64.864199 31.678959c8.920004 0 16.145443-8.037418 16.145443-17.957686s-7.225439-17.957686-16.145443-17.957687c-9.932036-1.094407-18.793201 6.931243-19.864073 17.981222 0 12.544491 9.826126 17.945919 19.534574 17.945919 0-0.011768 0.329499-0.011768 0.329499-0.011768z m-96.260731-35.950676c-9.884965-0.823747-18.581381 7.119528-19.664019 17.945918 1.082639 10.814622 9.779055 18.757898 19.664019 17.945919 9.025914 0 16.357264-8.037418 16.357264-17.957686 0-9.908501-7.331349-17.945919-16.357264-17.945919v0.011768z m280.49765-95.436984c0 51.907834-50.731053 95.378145-108.052082 95.378145-60.651321 0-108.052082-43.47031-108.052081-95.366377 0-51.919602 47.530207-95.389912 108.052081-95.389912 12.76808 0.600159 25.418481 2.847811 37.609939 6.684119l34.197271-20.028822-9.80259 33.502971c27.807348 20.028822 45.600285 46.871209 45.600285 75.325787l0.447177-0.105911z m-145.450199 11.414781c-5.87214 0-10.638105 5.342588-10.638106 11.920797s4.765965 11.932565 10.638106 11.932565c6.601744 0.776676 12.556259-4.495306 13.380006-11.885493-0.788444-7.425492-6.742958-12.76808-13.380006-11.967869z m72.030798-0.058839c-5.87214 0-10.638105 5.354356-10.638105 11.932565 0 6.613512 4.765965 11.967868 10.638105 11.967868 6.601744 0.800211 12.556259-4.495306 13.380006-11.897261-1.235621-7.27251-7.084225-12.403278-13.650665-12.003172h0.270659z"  horiz-adv-x="1024" />

    
    <glyph glyph-name="icon--scrm-43" unicode="&#58893;" d="M512.005884 630.953492c-136.388981 0-246.959376-110.570394-246.959376-246.959376s110.570394-246.959376 246.959376-246.959376 246.959376 110.570394 246.959376 246.959376-110.570394 246.959376-246.959376 246.959376z m123.820954-221.964536a73.333496 73.333496 0 0 0-42.128779-31.714263 40.218863 40.218863 0 0 0-11.803119-1.976993c-7.743223 0.047071-13.991933 6.366388-13.944861 14.109611 0.047071 7.684384 6.260478 13.89779 13.944861 13.944862 1.070871-0.023536 2.129975 0.176517 3.106703 0.58839 11.238264 2.788972 20.923176 9.884965 26.971833 19.758163a36.262523 36.262523 0 0 1 5.330821 19.110932c0 22.182332-20.499535 40.45775-45.494375 40.45775-8.649344-0.023536-17.145707-2.247653-24.700645-6.472299A39.526915 39.526915 0 0 1 526.021352 442.809658v-117.795833c-0.247124-24.300539-13.685969-46.54171-35.06809-58.085937a76.99917 76.99917 0 0 0-38.480757-9.873198c-40.704874 0-74.090166 30.619856-74.090166 68.512222 0.070607 11.885494 3.365595 23.523863 9.531931 33.679488a73.333496 73.333496 0 0 0 42.128779 31.714263c3.812772 1.223853 7.790294 1.894618 11.803119 1.976993 7.743223 0.047071 14.06254-6.201639 14.109611-13.944861 0.047071-7.743223-6.201639-14.06254-13.944862-14.109611h-0.164749a7.566705 7.566705 0 0 1-3.106703-0.588391 46.307531 46.307531 0 0 1-26.971833-19.758162 36.262523 36.262523 0 0 1-5.330821-19.110933c0-22.182332 20.499535-40.45775 45.78857-40.457749 8.649344 0.023536 17.145707 2.247653 24.700645 6.472298a39.495142 39.495142 0 0 1 21.040854 33.985451v117.254514a66.920036 66.920036 0 0 0 35.115161 58.133008c11.532459 6.907708 24.735948 10.496891 38.174794 10.367446 40.704874 0 74.090166-30.619856 74.090166-68.512222a65.546732 65.546732 0 0 0-9.520163-33.679488z"  horiz-adv-x="1024" />

    
    <glyph glyph-name="icon--scrm-40" unicode="&#58894;" d="M512.005884 383.994116m-288.14673 0a288.14673 288.14673 0 1 1 576.29346 0 288.14673 288.14673 0 1 1-576.29346 0ZM648.630222 465.556845c-41.422711 0.094143-74.98452 33.703024-74.984521 75.161038 0 0.058839 0.011768 0.117678 0.011768 0.176517h-53.790684c-0.211821-26.101015 0-52.190262-0.211821-78.279509v-135.506395c0-0.235356 0.070607-0.458945 0.070607-0.694301 0-0.435409-0.117678-0.847283-0.129446-1.270924-0.047071-2.118207-0.282428-4.224646-0.635462-6.295781-0.176517-1.012032-0.364802-2.012296-0.611927-3.012561-0.37657-1.518048-0.859051-3.012561-1.388602-4.483538-0.706069-2.000529-1.565119-3.918683-2.541848-5.789765-0.294195-0.553087-0.588391-1.117942-0.894354-1.659262a45.300206 45.300206 0 0 0-10.226232-12.132618l-0.423641-0.353034c-7.802062-6.342853-17.61642-10.308606-28.454578-10.308607-25.030144 0-45.317857 20.287714-45.317857 45.317858s20.287714 45.317857 45.317857 45.317857c0.835515 0 1.612191-0.200053 2.447706-0.247124 3.883379 0 7.637312-0.529552 11.308871-1.788708v55.37934c-22.488295 3.17731-46.141605-1.906386-65.440822-13.79188-13.368238-8.060954-24.818323-19.522806-32.891045-32.891044-8.908236-14.639162-14.0037-31.608352-14.427341-48.801131-0.635462-18.675523 4.236414-37.551099 13.791879-53.461186 6.990082-12.097314 16.545549-22.488295 28.007401-30.549249 0-0.211821 0.423641-0.423641 0.635462-0.635462 10.602802-7.425492 22.911937-12.721009 35.644713-15.486445 8.908236-2.118207 18.240114-2.553616 27.571992-2.330027 18.240114 0.423641 36.491996 6.578209 51.131158 17.392831 11.450084 8.272774 21.005551 19.299217 28.007401 31.396531 8.060954 14.215521 13.368238 29.913787 14.427342 46.247515 0.423641 4.460002 0.211821 8.908236 0.211821 13.368239-0.423641 33.302918-0.423641 66.617603-0.423642 99.920521 21.641013-15.274624 47.94208-23.547399 74.254916-23.335578v53.414114h-0.047071z"  horiz-adv-x="1024" />

    
    <glyph glyph-name="shanchu" unicode="&#58886;" d="M680-64.1H344c-82.5 0-149.4 66.9-149.4 149.4V645.4h74.7v-560.2c0-41.2 33.4-74.7 74.7-74.7h336c41.2 0 74.7 33.4 74.7 74.7V533.4c0 20.6 16.7 37.3 37.3 37.3 20.6 0 37.3-16.7 37.3-37.3v-448.1c0.1-82.6-66.8-149.4-149.3-149.4zM902.1 645.4H121.9c-1.1 0-2 0.9-2 2v70.7c0 1.1 0.9 2 2 2h780.2c1.1 0 2-0.9 2-2v-70.7c0-1.1-0.9-2-2-2zM640.7 757.4H383.3c-1.1 0-2 0.9-2 2V830.1c0 1.1 0.9 2 2 2h257.4c1.1 0 2-0.9 2-2v-70.7c0-1.1-0.9-2-2-2zM454 159.9h-70.7c-1.1 0-2 0.9-2 2V531.4c0 1.1 0.9 2 2 2H454c1.1 0 2-0.9 2-2V162c0-1.2-0.9-2.1-2-2.1zM640.7 159.9H570c-1.1 0-2 0.9-2 2V531.4c0 1.1 0.9 2 2 2h70.7c1.1 0 2-0.9 2-2V162c0-1.2-0.9-2.1-2-2.1z"  horiz-adv-x="1024" />

    
    <glyph glyph-name="tianjia" unicode="&#58890;" d="M512-63.8C265.1-63.8 64.2 137.1 64.2 384S265.1 831.8 512 831.8 959.8 630.9 959.8 384 758.9-63.8 512-63.8z m0 820.9c-205.8 0-373.1-167.4-373.1-373.1S306.2 10.9 512 10.9 885.1 178.2 885.1 384 717.8 757.1 512 757.1zM547.3 160.1h-70.6c-1.1 0-2 0.9-2 2V605.9c0 1.1 0.9 2 2 2h70.6c1.1 0 2-0.9 2-2v-443.8c0-1.1-0.9-2-2-2zM288.1 348.7v70.6c0 1.1 0.9 2 2 2h443.8c1.1 0 2-0.9 2-2v-70.6c0-1.1-0.9-2-2-2H290.1c-1.1 0-2 0.9-2 2z"  horiz-adv-x="1024" />

    
    <glyph glyph-name="shezhi" unicode="&#58895;" d="M512 495c61.3 0 111-49.7 111-111s-49.7-111-111-111-111 49.7-111 111 49.6 111 111 111m0 74.1c-102.1 0-185.1-83-185.1-185.1s83-185.1 185.1-185.1 185.1 83 185.1 185.1S614 569.1 512 569.1zM512 757.3c9.5 0 18.9-3.6 26.2-10.8l76.8-76.8c6.9-6.9 16.4-10.8 26.2-10.8h108.6c20.4 0 37-16.6 37-37v-108.6c0-9.8 3.9-19.2 10.8-26.2l76.8-76.8c14.5-14.5 14.5-37.9 0-52.3l-76.8-77c-6.9-6.9-10.8-16.4-10.8-26.2v-108.6c0-20.4-16.6-37-37-37H641.1c-9.8 0-19.2-3.9-26.2-10.8l-76.8-76.8c-7.2-7.2-16.7-10.8-26.2-10.8s-18.9 3.6-26.2 10.8L409 98.3c-6.9 6.9-16.4 10.8-26.2 10.8H274.2c-20.4 0-37 16.6-37 37V254.8c0 9.8-3.9 19.2-10.8 26.2l-76.8 76.8c-14.5 14.5-14.5 37.9 0 52.3l76.8 76.8c6.9 6.9 10.8 16.4 10.8 26.2V621.8c0 20.4 16.6 37 37 37h108.6c9.8 0 19.2 3.9 26.2 10.8l76.8 76.8c7.2 7.3 16.7 10.9 26.2 10.9m0 74.1c-29.7 0-57.5-11.6-78.5-32.5l-66-66h-93.3c-61.2 0-111-49.8-111-111v-93.3l-66-66c-43.3-43.3-43.3-113.7 0-157l66-66v-93.3c0-61.2 49.8-111 111-111h93.3l66-66c21-21 48.9-32.5 78.5-32.5 29.7 0 57.5 11.6 78.5 32.5l66 66h93.3c61.2 0 111 49.8 111 111v93.3l66 66c21 21 32.5 48.9 32.5 78.5 0 29.7-11.6 57.5-32.5 78.5l-66 66v93.3c0 61.2-49.8 111-111 111h-93.3l-66 66c-21 20.9-48.9 32.5-78.5 32.5z"  horiz-adv-x="1024" />

    
    <glyph glyph-name="saoyisao" unicode="&#58897;" d="M101.5 514.6c20.6 0 37.3 16.7 37.3 37.3V757.1H344c20.6 0 37.3 16.7 37.3 37.3S364.6 831.7 344 831.7H138.9c-41.2 0-74.6-33.5-74.6-74.6v-205.2c-0.1-20.6 16.6-37.3 37.2-37.3zM885.1 831.8H679.9c-20.6 0-37.3-16.7-37.3-37.3s16.7-37.3 37.3-37.3h205.2V552c0-20.6 16.7-37.3 37.3-37.3s37.3 16.7 37.3 37.3V757.1c0.1 41.2-33.4 74.7-74.6 74.7zM344.1 10.9H138.9V216.1c0 20.6-16.7 37.3-37.3 37.3s-37.3-16.7-37.3-37.3v-205.2c0-41.2 33.5-74.6 74.6-74.6h205.2c20.6 0 37.3 16.7 37.3 37.3s-16.7 37.3-37.3 37.3zM922.5 253.4c-20.6 0-37.3-16.7-37.3-37.3v-205.2H679.9c-20.6 0-37.3-16.7-37.3-37.3s16.7-37.3 37.3-37.3h205.2c41.2 0 74.6 33.5 74.6 74.6V216.1c0.1 20.6-16.6 37.3-37.2 37.3zM176.2 384c0-20.6 16.7-37.3 37.3-37.3h597c20.6 0 37.3 16.7 37.3 37.3 0 20.6-16.7 37.3-37.3 37.3h-597c-20.6 0-37.3-16.7-37.3-37.3z"  horiz-adv-x="1024" />

    
    <glyph glyph-name="crew_scenes" unicode="&#58883;" d="M592 560H176c-52.928 0-96-43.072-96-96v-416c0-52.928 43.072-96 96-96h416c52.928 0 96 43.072 96 96V464c0 52.928-43.072 96-96 96z m32-512a32 32 0 0 0-32-32H176c-17.632 0-32 14.336-32 32V464c0 17.632 14.368 32 32 32h416c17.664 0 32-14.368 32-32v-416zM720 688H304a32 32 0 0 1 0-64h416c17.664 0 32-14.368 32-32v-416a32 32 0 1 1 64 0V592c0 52.928-43.072 96-96 96zM528 144H240a32 32 0 1 1 0-64h288a32 32 0 1 1 0 64zM848 816H432a32 32 0 0 1 0-64h416c17.664 0 32-14.368 32-32v-416a32 32 0 1 1 64 0V720c0 52.928-43.072 96-96 96z"  horiz-adv-x="1024" />

    
    <glyph glyph-name="crew_tech" unicode="&#58885;" d="M435.2 569.6a32 32 0 0 1-44.8-6.4l-96-128a31.968 31.968 0 0 1 0-38.4l96-128a32 32 0 0 1 51.2 38.4L360 416l81.6 108.8a32 32 0 0 1-6.4 44.8z m313.6-307.2a32 32 0 0 1 44.8 6.4l96 128a31.968 31.968 0 0 1 0 38.4l-96 128a32 32 0 0 1-51.2-38.4L824 416l-81.6-108.8a32 32 0 0 1 6.4-44.8zM592.768 582.944l-64-288a32 32 0 1 1 62.464-13.888l64 288a32 32 0 1 1-62.464 13.888zM864 259.616a32 32 0 0 1-32-32V160h-96a96 96 0 0 1-96-96v-96H227.04c-19.328 0-35.04 16.576-35.04 36.928V763.072C192 783.424 207.712 800 227.04 800h569.888C816.288 800 832 783.424 832 763.072v-124.448a32 32 0 1 1 64 0V763.072C896 818.72 851.552 864 796.928 864H227.04C172.448 864 128 818.72 128 763.072v-758.144C128-50.72000000000003 172.448-96 227.04-96h435.008c1.568 0 2.912 0.672 4.416 0.896 8.96-1.6 18.464 0.256 25.984 6.528l192 160a32 32 0 0 1 10.144 33.888c0.544 2.272 1.408 4.416 1.408 6.848V227.61599999999999a32 32 0 0 1-32 32zM736 96h78.016L704 4.32000000000005V64a32 32 0 0 0 32 32z"  horiz-adv-x="1024" />

    
    <glyph glyph-name="crew_worksheet" unicode="&#58887;" d="M607.232 0a32 32 0 1 0 0-64H192a96 96 0 0 0-96 96V736a96 96 0 0 0 96 96h544a96 96 0 0 0 96-96 32 32 0 0 0-64 0 32 32 0 0 1-32 32H192a32 32 0 0 1-32-32v-704a32 32 0 0 1 32-32h415.232zM832 310.24v-146.656c0-42.656-64-42.656-64 0V310.24c0 42.688 64 42.688 64 0zM288 576a32 32 0 1 0 0 64h224a32 32 0 0 0 0-64H288z m0-160a32 32 0 0 0 0 64h128a32 32 0 0 0 0-64H288z m351.424-446.592a32 32 0 1 0-64 0L576 96a96 96 0 0 0 96 96l127.744-1.152a32 32 0 1 0 0-64L672 128a32 32 0 0 1-32-32l-0.576-126.592zM637.92-51.648000000000025a32 32 0 1 0-44.32 46.208l180.384 172.992a32 32 0 1 0 44.288-46.176L637.92-51.648000000000025z m242.976 613.12a31.424 31.424 0 0 1 3.328 44.416l-0.416 0.512a32 32 0 0 1-44.896 3.36L408.32 243.712l-15.2-51.84 58.336 4.544 429.44 365.056z m51.616 86.4a95.36 95.36 0 0 0-9.408-134.496l-438.08-372.448a32 32 0 0 0-18.24-7.52l-114.944-8.896a32 32 0 0 0-33.184 40.928L349.6 270.91200000000003a32 32 0 0 0 9.984 15.36l437.824 372.224a96 96 0 0 0 134.688-10.112l0.416-0.512z"  horiz-adv-x="1024" />

    
    <glyph glyph-name="crew_service" unicode="&#58891;" d="M927.616 430.4C923.328 659.296 745.888 844.192 528 844.192h-32c-217.888 0-395.328-184.896-399.616-413.76C58.112 408.256 32 367.328 32 320v-64c0-70.592 57.408-128 128-128s128 57.408 128 128v64a128.064 128.064 0 0 1-126.784 127.872c12.512 185.44 157.696 332.32 334.784 332.32h32c177.12 0 322.272-146.88 334.784-332.32A128.064 128.064 0 0 1 736 320v-64c0-57.792 38.72-106.176 91.392-122.016a337.504 337.504 0 0 0-191.936-124.48A79.712 79.712 0 0 1 560 64a80 80 0 1 1 0-160 79.68 79.68 0 0 1 67.872 38.112 402.432 402.432 0 0 1 278.24 193.6C955.968 153.18399999999997 992 200.22400000000005 992 256v64c0 47.328-26.112 88.256-64.384 110.4zM224 320v-64c0-35.296-28.704-64-64-64s-64 28.704-64 64v64c0 35.296 28.704 64 64 64s64-28.704 64-64z m704-64c0-34.304-27.2-62.176-61.12-63.712l-2.496 1.184c-0.224-0.512-0.576-0.928-0.8-1.408A64 64 0 0 0 800 256v64c0 35.296 28.704 64 64 64s64-28.704 64-64v-64z"  horiz-adv-x="1024" />

    
    <glyph glyph-name="crew_docs" unicode="&#58896;" d="M288 576h448a32 32 0 0 1 0 64H288a32 32 0 0 1 0-64z m0-224h448a32 32 0 0 1 0 64H288a32 32 0 0 1 0-64z m256-160H288a32 32 0 0 1 0-64h256a32 32 0 0 1 0 64zM896 763.072C896 818.72 851.552 864 796.928 864H227.04C172.448 864 128 818.72 128 763.072v-758.144C128-50.72000000000003 172.448-96 227.04-96h435.008c1.568 0 2.912 0.672 4.416 0.896 8.96-1.6 18.464 0.256 25.984 6.528l192 160a31.424 31.424 0 0 1 10.816 27.2c0.16 1.184 0.736 2.208 0.736 3.424V763.072zM192 4.927999999999997V763.072C192 783.424 207.712 800 227.04 800h569.888C816.288 800 832 783.424 832 763.072V160h-96a96 96 0 0 1-96-96v-96H227.04c-19.328 0-35.04 16.576-35.04 36.928zM814.016 96L704 4.32000000000005V64a32 32 0 0 0 32 32h78.016z"  horiz-adv-x="1024" />

    
    <glyph glyph-name="crew_structure" unicode="&#58898;" d="M960 192h-63.616V359.39200000000005a32 32 0 0 1-32 32H544V480h160a32 32 0 0 1 32 32V800a32 32 0 0 1-32 32H320a32 32 0 0 1-32-32v-288a32 32 0 0 1 32-32h160v-88.608H161.984a32 32 0 0 1-32-31.968L129.792 192H64a32 32 0 0 1-32-32v-192a32 32 0 0 1 32-32h192a32 32 0 0 1 32 32V160a32 32 0 0 1-32 32h-62.208l0.16 135.392H480V192h-64a32 32 0 0 1-32-32v-192a32 32 0 0 1 32-32h192a32 32 0 0 1 32 32V160a32 32 0 0 1-32 32h-64V327.39200000000005h288.384V192H768a32 32 0 0 1-32-32v-192a32 32 0 0 1 32-32h192a32 32 0 0 1 32 32V160a32 32 0 0 1-32 32zM352 768h320v-224H352V768zM224 0H96V128h128v-128z m352 0H448V128h128v-128z m352 0H800V128h128v-128z"  horiz-adv-x="1024" />

    
    <glyph glyph-name="crew_save" unicode="&#58899;" d="M941.248 544L672 813.248A64 64 0 0 1 626.752 832H128a64 64 0 0 1-64-64v-768a64 64 0 0 1 64-64h768a64 64 0 0 1 64 64V498.752A64 64 0 0 1 941.248 544zM256 768h48v-160h-48V768z m112 0h144v-160H368V768zM256 0V192h512v-192H256z m640 0h-64V224a32 32 0 0 1-32 32H224a32 32 0 0 1-32-32v-224h-64V768h64v-192a32 32 0 0 1 32-32h320a32 32 0 0 1 32 32V768h50.752L896 498.752V0z"  horiz-adv-x="1024" />

    
    <glyph glyph-name="crew_setting" unicode="&#58900;" d="M482.88 784l-17.28-90.688-20.64-4.512a309.696 309.696 0 0 1-99.776-41.088l-18.688-11.84-73.28 55.04-44.64-44.64 51.904-76.416-11.392-17.76a310.016 310.016 0 0 1-41.568-99.584l-4.8-21.6L112 418.016v-63.104l90.688-17.312 4.512-20.64a309.984 309.984 0 0 1 41.088-99.776l11.84-18.688-55.04-73.28 44.64-44.64 76.416 51.904 17.76-11.392a310.016 310.016 0 0 1 99.584-41.568l21.6-4.8L477.984-16h63.104l17.312 90.688 20.64 4.512a309.984 309.984 0 0 1 99.776 41.088l18.688 11.84 73.28-55.04 44.64 44.64-51.904 76.416 11.392 17.76a310.016 310.016 0 0 1 41.568 99.584l4.8 21.6L912 349.98400000000004V413.12l-90.688 17.312-4.512 20.64a309.984 309.984 0 0 1-41.088 99.776l-11.84 18.688 55.04 73.28-44.64 44.64-76.416-51.904-17.76 11.392a310.144 310.144 0 0 1-99.584 41.568l-21.6 4.8-12.896 90.72H482.88z m-72.32-37.856L429.984 848h171.584l14.624-102.624a374.119 374.119 0 0 0 80.128-33.568l85.792 58.304 121.344-121.344-62.272-82.88c14.08-25.408 25.152-52.352 32.96-80.416l101.888-19.424v-171.584L873.408 279.84000000000003a373.92 373.92 0 0 0-33.568-80.128l58.304-85.792L776.8-7.423999999999978l-82.88 62.272c-25.408-14.08-52.352-25.152-80.416-32.96L594.08-80H422.496l-14.624 102.624a373.92 373.92 0 0 0-80.128 33.568l-85.824-58.304-121.344 121.344 62.272 82.88a373.824 373.824 0 0 0-32.96 80.416L48 301.952V473.536l102.624 14.624a374.801 374.801 0 0 0 33.568 80.128l-58.304 85.792 121.344 121.344 82.88-62.272a373.856 373.856 0 0 0 80.416 32.96zM512 192a192 192 0 1 0 0 384 192 192 0 0 0 0-384z m0 64a128 128 0 1 1 0 256 128 128 0 0 1 0-256z"  horiz-adv-x="1024" />

    
    <glyph glyph-name="crew_authorized" unicode="&#58901;" d="M864 320H613.856A204.288 204.288 0 0 0 608 365.98400000000004c0 77.088 43.2 146.56 110.752 181.632a31.104 31.104 0 0 1 11.584 11.072C771.52 579.9359999999999 800 622.432 800 672A128 128 0 0 1 672 800H352a128 128 0 0 1-128-128c0-49.568 28.48-92.064 69.664-113.312a31.104 31.104 0 0 1 11.584-11.072A204.544 204.544 0 0 0 416 365.98400000000004c0-15.712-2.4-30.976-5.888-45.984H160a96 96 0 0 1-96-96v-64a96 96 0 0 1 96-96c0-54.272 49.088-96 107.296-96h489.408C814.912-32 864 9.727999999999952 864 64a96 96 0 0 1 96 96v64a96 96 0 0 1-96 96zM411.616 544h37.024a32 32 0 0 1 0 64H352a64 64 0 0 0 0 128h320a64 64 0 0 0 0-128H569.888a32 32 0 0 1 0-64h42.496a267.04 267.04 0 0 1-64.416-224h-71.936a267.04 267.04 0 0 1-64.416 224zM896 160a32 32 0 0 0-32-32h-55.712a32 32 0 0 1-32-32c0-14.72 10.144-26.592 23.712-30.336V64c0-16.416-18.336-32-43.296-32H267.296C242.336 32 224 47.583999999999946 224 64h456.128a32 32 0 0 1 0 64H160a32 32 0 0 0-32 32v64a32 32 0 0 0 32 32h704a32 32 0 0 0 32-32v-64z"  horiz-adv-x="1024" />

    
    <glyph glyph-name="crew_apps" unicode="&#58902;" d="M192 736a32 32 0 0 1-32-32v-192a32 32 0 0 1 32-32h192a32 32 0 0 1 32 32V704a32 32 0 0 1-32 32H192z m0 64h192a96 96 0 0 0 96-96v-192a96 96 0 0 0-96-96H192a96 96 0 0 0-96 96V704a96 96 0 0 0 96 96z m0-512a32 32 0 0 1-32-32v-192a32 32 0 0 1 32-32h192a32 32 0 0 1 32 32V256a32 32 0 0 1-32 32H192z m0 64h192a96 96 0 0 0 96-96v-192a96 96 0 0 0-96-96H192a96 96 0 0 0-96 96V256a96 96 0 0 0 96 96z m448-64a32 32 0 0 1-32-32v-192a32 32 0 0 1 32-32h192a32 32 0 0 1 32 32V256a32 32 0 0 1-32 32H640z m0 64h192a96 96 0 0 0 96-96v-192a96 96 0 0 0-96-96H640a96 96 0 0 0-96 96V256a96 96 0 0 0 96 96z m-37.728 277.728a32 32 0 0 1 0-45.28l112-112a32 32 0 0 1 45.28 0l112 112a32 32 0 0 1 0 45.28l-112 112a32 32 0 0 1-45.28 0l-112-112z m-45.248 45.248l112 112a96 96 0 0 0 135.776 0l112-112a96 96 0 0 0 0-135.776l-112-112a96 96 0 0 0-135.776 0l-112 112a96 96 0 0 0 0 135.776z"  horiz-adv-x="1024" />

    
    <glyph glyph-name="caozuojilu" unicode="&#58910;" d="M482.6 13H199.3c-23.3 0-42.2 20.3-42.2 45.3V623c0 25 18.9 45.3 42.2 45.3h51.2c1.1 0 2.1 0.2 3.1 0.3 14.2-42.4 54.2-73.1 101.4-73.1h259.4c47.2 0 87.3 30.8 101.4 73.4 1.8-0.3 3.6-0.6 5.5-0.6h44.3c25.7 0 46.7-19.4 46.7-43.2V393c0-20.1 16.3-36.4 36.4-36.4 20.1 0 36.4 16.3 36.4 36.4V625c0 64-53.6 116-119.5 116h-44.3c-0.4 0-0.9-0.1-1.3-0.1-7.7 51.5-52.1 91.1-105.6 91.1H355c-53.5 0-97.9-39.6-105.6-91h-50.1c-63.4 0-115-53-115-118.1v-564.7c0-65.1 51.6-118.1 115-118.1h283.3c20.1 0 36.4 16.3 36.4 36.4 0 20.2-16.3 36.5-36.4 36.5zM320.9 725.1c0 18.8 15.3 34.1 34.1 34.1h259.4c18.8 0 34.1-15.3 34.1-34.1v-22.8c0-18.8-15.3-34.1-34.1-34.1H355c-18.8 0-34.1 15.3-34.1 34.1v22.8zM757.7 486.2c0 20.1-16.3 36.4-36.4 36.4H248.1c-20.1 0-36.4-16.3-36.4-36.4 0-20.1 16.3-36.4 36.4-36.4h473.2c20.1 0 36.4 16.3 36.4 36.4zM248.1 358.8c-20.1 0-36.4-16.3-36.4-36.4 0-20.1 16.3-36.4 36.4-36.4h436.8c20.1 0 36.4 16.3 36.4 36.4 0 20.1-16.3 36.4-36.4 36.4H248.1zM557.5 158.6c0 20.1-16.3 36.4-36.4 36.4h-273c-20.1 0-36.4-16.3-36.4-36.4 0-20.1 16.3-36.4 36.4-36.4h273c20.1 0 36.4 16.3 36.4 36.4zM921.8 271.3l-37.4 37.4c-26.2 26.2-69.2 25.6-96-1.1L587.6 106.8c-17.8-17.9-29.9-41.2-34-65.8l-7.4-44.6c-2.7-16.5 2.7-33.4 14.5-45.2 9.8-9.8 23.1-15.2 36.8-15.2 2.8 0 5.7 0.2 8.5 0.7l44.6 7.4c25 4.2 47.7 15.9 65.8 34L921 182.8c11.7 11.7 18.4 27.2 18.8 43.6 0.3 17-6 32.9-18 44.9z m-257-241.8c-7.2-7.2-16.5-12-26.3-13.7l-15.8-2.6 2.6 15.8c1.6 9.7 6.5 19.1 13.7 26.3l198 197.9 25.7-25.8-197.9-197.9z"  horiz-adv-x="1024" />

    
    <glyph glyph-name="tongzhi2" unicode="&#58913;" d="M802 243.4h-17.6V427.9c0 132-94.3 242.2-219.1 267.1 15.7 14.5 25.8 35 25.8 58 0 43.6-35.5 79.1-79.1 79.1s-79.1-35.5-79.1-79.1c0-23 10-43.6 25.8-58-124.8-24.9-219.1-135.1-219.1-267.1v-184.5H222c-48.4 0-87.9-39.4-87.9-87.9s39.4-87.9 87.9-87.9h167.4c-0.2-2.9-0.4-5.8-0.4-8.8 0-67.8 55.2-123 123-123s123 55.2 123 123c0 3-0.2 5.9-0.4 8.8H802c48.4 0 87.9 39.4 87.9 87.9s-39.5 87.9-87.9 87.9z m-290 536c14.5 0 26.4-11.8 26.4-26.4 0-14.5-11.8-26.4-26.4-26.4s-26.4 11.8-26.4 26.4c0 14.6 11.9 26.4 26.4 26.4z m52.7-720.5c0-29.1-23.6-52.7-52.7-52.7s-52.7 23.6-52.7 52.7c0 3 0.4 5.9 0.9 8.8h103.7c0.4-2.9 0.8-5.8 0.8-8.8zM802 138H222c-9.7 0-17.6 7.9-17.6 17.6s7.9 17.6 17.6 17.6h17.6c38.8 0 70.3 31.5 70.3 70.3V427.9C309.9 539.4 400.6 630 512 630s202.1-90.7 202.1-202.1v-184.5c0-38.8 31.5-70.3 70.3-70.3H802c9.7 0 17.6-7.9 17.6-17.6S811.7 138 802 138z"  horiz-adv-x="1024" />

    
    <glyph glyph-name="sousuo2" unicode="&#58914;" d="M924.4 28.4L658.7 294.1c39.1 52.6 62.6 117.5 62.6 187.9 0 174.1-141.7 315.8-315.8 315.8S89.6 656.2 89.6 482s141.7-315.8 315.8-315.8c79.1 0 151.4 29.5 206.9 77.7l263.8-263.8c13.3-13.3 35-13.3 48.3 0 13.3 13.4 13.3 35 0 48.3zM157.9 482c0 136.5 111 247.5 247.5 247.5S653 618.5 653 482c0-59.5-21.1-114.2-56.3-156.9-3.7-1.7-16.6-15.1-18.3-19.8-44.7-43.7-105.7-70.8-173-70.8-136.5 0-247.5 111-247.5 247.5z"  horiz-adv-x="1024" />

    
    <glyph glyph-name="fenxiang" unicode="&#58924;" d="M844.3 367.7c-18.8 0-34-15.2-34-34v-221.1c0-37.5-30.5-68-68-68H232.1c-37.5 0-68 30.5-68 68V622.8c0 37.5 30.5 68 68 68h221.1c18.8 0 34 15.2 34 34s-15.2 34-34 34H232.1c-75 0-136.1-61-136.1-136.1v-510.2c0-75 61-136.1 136.1-136.1h510.2c75 0 136.1 61 136.1 136.1V333.7c0 18.8-15.3 34-34.1 34zM917.3 618.5L743.6 782.2c-13.7 12.9-35.2 12.2-48.1-1.4-12.9-13.7-12.3-35.2 1.4-48.1l112.9-106.4c-30.1-1.9-60.9-3.5-93-3.5-257.9 0-467.7-179.3-467.7-399.7 0-18.8 15.2-34 34-34s34 15.2 34 34c0 182.9 179.3 331.6 399.7 331.6 33.9 0 66 1.6 97.1 3.6L705.5 443.4c-12.9-13.7-12.3-35.2 1.4-48.1 6.6-6.2 15-9.3 23.3-9.3 9 0 18.1 3.6 24.7 10.7l163.7 173.7c13 13.7 12.4 35.2-1.3 48.1z"  horiz-adv-x="1024" />

    
    <glyph glyph-name="queding" unicode="&#58926;" d="M512 832.4C264.8 832.4 63.6 631.2 63.6 384S264.7-64.3 512-64.3 960.4 136.8 960.4 384c0 247.2-201.2 448.4-448.4 448.4z m0-825c-207.7 0-376.6 168.9-376.6 376.6 0 207.7 168.9 376.6 376.6 376.6s376.6-169 376.6-376.6c0-207.7-168.9-376.6-376.6-376.6zM705.3 555c-1.5 1.5-3 1.9-3.4 1.7L439.8 294.3 323.1 410.9c-0.6 0.7-1.5 1.1-2.4 1.1-1.5 0-2.1-0.7-2.2-0.9l-37.2-37.2c-0.7-0.6-1.1-1.5-1.1-2.4 0-0.7 0.4-1.7 1.1-2.2l156.2-156.4c1.3-1.3 3-1.7 3.4-1.5L744 514.6c0 0.6-0.2 2.1-1.7 3.4l-37 37z"  horiz-adv-x="1024" />

    
    <glyph glyph-name="tuichudenglu" unicode="&#58927;" d="M668 176c-19.1 0-34.7-15.5-34.7-34.7v-86.7c0-9.6-7.8-17.3-17.3-17.3H182.7c-9.6 0-17.3 7.8-17.3 17.3V713.3c0 9.6 7.8 17.3 17.3 17.3H616c9.6 0 17.3-7.8 17.3-17.3v-86.7c0-19.1 15.5-34.7 34.7-34.7 19.1 0 34.7 15.5 34.7 34.7v86.7c0 47.8-38.9 86.7-86.7 86.7H182.7C134.9 800 96 761.1 96 713.3v-658.7c0-47.8 38.9-86.7 86.7-86.7H616c47.8 0 86.7 38.9 86.7 86.7v86.7c0 19.2-15.6 34.7-34.7 34.7zM917.7 408.5L767.9 555.6c-13.8 13.5-36.1 13.5-49.9 0a34.173 34.173 0 0 1 0-49l89.5-87.9H460.6c-19.5 0-35.3-15.5-35.3-34.7 0-19.1 15.8-34.7 35.3-34.7h346.9L718 261.4a34.173 34.173 0 0 1 0-49c6.9-6.8 15.9-10.2 25-10.2 9 0 18.1 3.4 25 10.2l149.7 147.1c13.7 13.5 13.7 35.5 0 49z"  horiz-adv-x="1024" />

    
    <glyph glyph-name="dingshishezhi" unicode="&#58937;" d="M512 832.4C264.8 832.4 63.6 631.2 63.6 384S264.7-64.4 512-64.4c247.2 0 448.4 201.1 448.4 448.4 0 247.2-201.2 448.4-448.4 448.4z m41.1-819.6v73.3c0 21-14.2 40.9-35 43.9-25.4 3.7-47.2-16-47.2-40.7v-76.5c-173.3 19-311.4 156.8-331.1 329.9h74.5c21 0 40.9 14.2 43.9 35 3.7 25.4-16 47.2-40.7 47.2h-78C158 599.3 296.7 738.4 470.9 757.5v-76c0-21 14.2-40.9 35-43.9 25.4-3.7 47.2 16 47.2 40.7v79.3c174.2-19.1 313-158.2 331.4-332.6h-74.8c-21 0-40.9-14.2-43.9-35-3.7-25.4 16-47.2 40.7-47.2h77.7c-19.7-173.2-157.7-310.9-331.1-330zM549.4 533.4h-74.8v-186.8h168.2v74.7h-93.4z"  horiz-adv-x="1024" />

    
    <glyph glyph-name="shebeikongzhi" unicode="&#58940;" d="M756.2 472c22.3 0 37.3 15.1 37.3 37.6 0 89.7-73 162.6-162.6 162.6-95.6 0-172.3-82.6-162.1-180.1 0.7-6.4 5.1-11.8 11.1-14.4 40.7-17.5 70.7 6.9 61.6 45.1-3.1 13.1 0.3 27.3 9.7 37 75.3 77 167.6 23.7 167.6-50.3v-4.2c3.8-19 19.6-33.3 37.4-33.3zM379.5 472c22.5 0 37.6 15.1 37.6 37.6 0 119.6 93.5 213.5 213.1 213.5s213.5-93.8 213.5-213.5c0-22.5 15-37.6 37.3-37.6 22.5 0 37.4 15.1 37.4 37.6 0 161.6-126.6 288.2-288.2 288.2s-288-126.6-288-288.2c0-22.5 15-37.6 37.3-37.6zM888.1 383.8h-221V517.7c-3.4 19-18 33.3-34.3 33.3-20.7 0-34.6-15.1-34.6-37.4v-129.7H135.9c-20.7 0-37.4-16.8-37.4-37.4v-338.7c0-20.7 16.8-37.4 37.4-37.4h752.2c20.7 0 37.4 16.8 37.4 37.4V346.3c0 20.7-16.7 37.5-37.4 37.5z m-31.5-344.7H167.4V314.8h689.2v-275.7zM298.1 136.1c24.8 0 41.4 16.5 41.4 41.4 0 24.8-16.5 41.4-41.4 41.4-24.8 0-41.4-16.5-41.4-41.4 0.1-24.8 16.6-41.4 41.4-41.4zM422.2 136.1c24.8 0 41.3 16.5 41.3 41.4 0 24.8-16.5 41.4-41.3 41.4-24.8 0-41.4-16.5-41.4-41.4 0-24.8 16.6-41.4 41.4-41.4zM546.2 136.1c24.8 0 41.3 16.5 41.3 41.4 0 24.8-16.5 41.4-41.3 41.4-24.8 0-41.4-16.5-41.4-41.4 0.1-24.8 16.6-41.4 41.4-41.4z"  horiz-adv-x="1024" />

    
    <glyph glyph-name="bangding" unicode="&#58943;" d="M853.7 725.7c-46.5 46.5-108.5 72.1-174.4 72.1h-0.1c-66 0-127.9-25.6-174.4-72.1L365.6 586.5l52.6-52.6L557.5 673c67.1 67.1 176.4 67.1 243.5 0s67.1-176.3 0-243.5L661.7 290.3l52.6-52.6 139.4 139.2c46.5 46.5 72.1 108.4 72.1 174.4s-25.6 127.9-72.1 174.4zM466.4 95c-32.4-32.5-75.7-50.5-121.7-50.5s-89.3 17.9-121.8 50.5c-32.5 32.5-50.4 75.7-50.4 121.7s17.9 89.3 50.4 121.7l139.2 139.3-52.6 52.6-139.2-139.1c-46.5-46.5-72.1-108.4-72.1-174.4s25.6-127.9 72.1-174.4c46.6-46.6 108.5-72.3 174.4-72.3s127.8 25.7 174.4 72.3l139.1 139.2-52.6 52.6L466.4 95zM328.683 253.459l313.714 313.625 52.672-52.686-313.714-313.626z"  horiz-adv-x="1024" />

    
    <glyph glyph-name="dingshishezhi2" unicode="&#58945;" d="M843.7 118.8c-62.3 13-69.6 115.5-69.6 115.5V436.6c0 137.5-98.5 257.1-229.3 278.1l-2 0.2V798.1h-71.2v-83.3l-2-0.2c-130.7-21-229.3-140.6-229.3-278.1v-201.2s2.5-102.7-60-115.7l-29-6.2V33H436c6.8-38.8 37.7-63.1 76-63.1 38.1 0 72.8 24.3 79.7 63.1h289.1v79.4l-37.1 6.4z m-541.8-14.6l1.8 3.2c15.5 28.6 25.6 78.5 25.6 126.9V439.9C329.3 551.3 413.1 642 516 642c103.1 0 186.9-90.7 186.9-202.1v-208.4c0.2-37.9 2.3-91.8 19.8-124.2l1.8-3.2H301.9zM778.4 713.1l-49.5-61.2c76.7-65.5 120.8-161 121.5-263H928c-0.7 125.6-55.2 243.5-149.6 324.2z m-532.9-0.2C151.2 632.3 96.7 514.5 96 388.9h77.6c0.7 101.8 44.8 197.5 121.3 262.8l-49.4 61.2z"  horiz-adv-x="1024" />

    
    <glyph glyph-name="jiechubangding" unicode="&#58946;" d="M853.2 725.2c-46.5 46.4-108.3 72-174.2 72h-0.1c-65.9 0-127.7-25.6-174.1-72l-95.6-95.6 52.6-52.6 95.6 95.6c67 67 176.1 67 243.1 0 32.4-32.4 50.3-75.6 50.3-121.6s-17.9-89.1-50.3-121.6L705 333.9l52.6-52.6 95.7 95.5c96 96.1 96 252.3-0.1 348.4zM466.5 95.6c-32.4-32.5-75.6-50.4-121.5-50.4-45.9 0-89.1 17.9-121.6 50.4C190.9 128 173 171.2 173 217.1c0 46 17.9 89.1 50.3 121.6l95.6 95.6-52.6 52.6-95.6-95.6c-96-96-96-252.3 0-348.4 46.5-46.5 108.4-72.2 174.2-72.2 65.9 0 127.7 25.7 174.1 72.3l95.6 95.6-52.6 52.6-95.5-95.6zM481.8 466.8L320.6 628 268 575.4l161.2-161.2zM539.5 304l161.2-161.2 52.6 52.6-161.2 161.2z"  horiz-adv-x="1024" />

    
    <glyph glyph-name="jiankongshebei" unicode="&#58949;" d="M512 575.8c-80.3 0-145.7-69.5-145.7-154.8 0-41.4 15.2-80.3 42.7-109.5 27.5-29.2 64.1-45.4 103-45.4 38.8 0 75.4 16.1 102.9 45.4 27.5 29.3 42.7 68.2 42.7 109.5 0.1 85.3-65.3 154.8-145.6 154.8z m-0.5-223.7c-18.3 0-35.5 7.6-48.4 21.5-12.9 13.9-20.1 32.3-20.1 52 0 40.5 30.7 73.5 68.5 73.5s68.5-33 68.5-73.5-30.7-73.5-68.5-73.5zM881 474.8v5.4c-0.8 95-40.3 184-111.2 250.7C699.5 797.1 606.6 833.5 509 832.1c-203.4-1.6-367.6-161.9-366-357.4v-5.9c1.4-150.1 100.9-281.9 248.5-330.1l-48.7-125.1h-97.2c-18.5 0-36.1-11.5-40.5-29.4-6.3-25.5 13.8-48.3 39.3-48.3h534.2c18.5 0 36.1 11.5 40.5 29.5 6.2 25.5-13.8 48.2-39.3 48.2h-98.5l-48.7 125c53.7 17.5 103.1 47.3 143.3 86.6 68.7 67 106 155.7 105.1 249.6zM429 13.6l44.6 118.8c14.3-1.5 27.3-2.3 39.6-2.3h9.3c11.6 0.1 23.8 0.8 37.2 2.2l44.6-118.7H429z m237.3 233.6c-45.2-26.6-98.3-39.3-151.7-39.4H509c-157.6 0-286.9 119-288.3 265.2v5.8C219.4 628 349 750.4 509.7 751.6h2.3c159.3 0 290-120.3 291.3-268.2v-5.3c0.9-92.8-48.7-178.8-137-230.9zM512 615.6c21.4 0 38.8 17.4 38.8 38.8s-17.4 38.8-39 38.8c-6.6-0.2-13.3-2-19.3-5.3-11.8-6.9-19.3-19.8-19.4-33.5 0.1-21.3 17.5-38.8 38.9-38.8z"  horiz-adv-x="1024" />

    
    <glyph glyph-name="dingdanxiugai" unicode="&#58951;" d="M323 13.9l-151.2 0.1c-8.6-0.6-17.1 2.5-23.6 8.4-6.4 6-10.3 14.3-10.6 23.2V722.4c0.4 8.9 4.2 17.3 10.6 23.2 6.4 5.9 14.9 9 23.6 8.4h577.8c9 0.6 17.8-2.5 24.5-8.4 6.7-6 10.7-14.3 11-23.3V532c0-20.2 16.6-36.6 37-36.6s37 16.4 37 36.6V764.7c-0.8 17.6-8.4 34.2-21.2 46.1C825.1 822.7 808.3 828.9 791 828H132.4C115 829.1 98 822.9 85.1 811c-12.9-11.9-20.6-28.6-21.4-46.4V8c0.5-18.9 8.4-36.9 22-49.7 13.6-12.8 33.6-19.5 52-18.3h185c19.9 0 36.4 16.4 36.4 36.9 0 20.4-16.2 37-36.1 37zM669.7 624.5c0 20.4-15.7 37-35 37H302.3c-19.3 0-35-16.6-35-37s15.7-37 35-37h332.4c19.3 0 35 16.6 35 37zM820.4 452.4L466.7 109l-18.5-18c-18.9-65.1-18.5-116.1 0-133.7 24.8-24.3 91-14.4 139.9 0l18.2 17.6 354 343.5-139.9 134zM557.7 21l-6.6-6.3c-15.7-8.7-33.9-11.5-51.4-7.7-3.6 17.1-0.7 34.9 8.1 50l6.3 6 303.7 293.8 43.7-42.2L557.7 21zM300.9 476.5c-19.3 0-35-16.6-35-37s15.7-37 35-37h268.7c19.3 0 35 16.6 35 37s-15.7 37-35 37H300.9zM362.1 310h-61.2c-19.3 0-35-16.6-35-37s15.7-37 35-37h61.2c19.3 0 35 16.6 35 37s-15.6 37-35 37z"  horiz-adv-x="1024" />

    
    <glyph glyph-name="shijianshezhi" unicode="&#58952;" d="M655.6 625.6c12.2 5.9 19 19.3 19 32.9v21.8c0 26.5-27.7 46.6-55.8 32.9-12.2-5.9-19-19.3-19-32.9v-21.8c0-26.5 27.7-46.6 55.8-32.9zM842.7 10.3h-56.1V117.1c0 59.4-57.8 109.3-112.7 157.6-19.1 16.8-45.5 41.7-55.4 53.3v98.4c9.9 11.6 36.3 36.5 55.4 53.3 54.9 48.3 112.7 98.2 112.7 157.6V757.7h40.6c15.4 0 30.5 8.3 36.4 22.6 11.1 26.8-9.7 52.2-37 52.2h-641c-15.4 0-30.5-8.3-36.4-22.6-11.1-26.8 9.8-52.2 37-52.2h40v-150.9s60.1-72 116.6-120.3c19.7-16.8 46.9-41.7 51.5-53.3V328c-4.6-11.6-31.9-29.6-51.5-46.4-56.6-48.3-116.1-98.2-116.6-157.6v-113.6h-40.3c-15.8 0-40.8-11.5-40.8-34s18.3-40.8 40.8-40.8h652.2c22.5 0 40.8 18.3 40.8 40.8 0 22.5-13.7 33.9-36.2 33.9z m-130.8 0h-411v106c0 21.6 74.3 69.3 103.6 95C452.2 253 469 289.6 469 328V428c0 38.3-16.8 68.4-64.5 110.1-29.3 25.6-103.6 73.3-103.6 95V757.7h411V633c0-21.6-55.6-69.3-85-95-47.7-41.7-83.2-71.8-83.2-110.1v-100c0-38.3 35.5-75 83.2-116.6 29.3-25.6 85-73.3 85-95v-106z"  horiz-adv-x="1024" />

    
    <glyph glyph-name="zhishushezhi" unicode="&#58953;" d="M918.7 468.2C878.8 660 707.6 799.1 511.8 799.1h-0.1c-53.5 4.5-107-7.9-155.9-29.9l-18.7-8.4 28.7-63.7 4.1 1.8c138.8 62.4 305.1 25.4 404.3-90.1 99.2-115.5 110.7-285.4 28-413.3-82.7-127.8-242.3-187-388.4-143.9-146 43.1-248 179.5-248 331.7 0.2 84.4 30.9 165.5 86.6 228.7l64.1-69.2c-74.4-91-76.6-218.9-5-312.6 90.3-118.1 273.1-137.4 385.3-18.2 33.7 35.8 56.1 81.5 63.7 130 25.4 160.9-100.7 293.4-248.7 293.4h-0.1c-8.6 0-17.3-0.4-25.9-1.3l-4.5-0.5 7.1-69.6 4.5 0.5c6.1 0.6 12.4 1 18.8 1 63.9 0 124.8-32.3 156.6-87.8 55.9-97.7 16.8-212.5-76.3-258.1-76.6-37.6-167.8-17.6-221.6 48.6-52.7 64.8-54.9 155.6-5.8 222.6L489 356.2l51.4 47.5-331.2 357.8-51.3-47.5 46.8-50.5C73.8 520 60.2 301.9 172.6 143.2 252.2 30.7 381-32 513-32c55.5 0 111.7 11.1 164.9 34.3 179.5 78.2 280.8 274.2 240.8 465.9z"  horiz-adv-x="1024" />

    


  </font>
</defs>
</svg>
